<?xml version="1.0" encoding="utf-8" standalone="no"?>
<!DOCTYPE svg PUBLIC "-//W3C//DTD SVG 1.1//EN"
  "http://www.w3.org/Graphics/SVG/1.1/DTD/svg11.dtd">
<!-- Created with matplotlib (http://matplotlib.org/) -->
<svg height="432pt" version="1.1" viewBox="0 0 576 432" width="576pt" xmlns="http://www.w3.org/2000/svg" xmlns:xlink="http://www.w3.org/1999/xlink">
 <defs>
  <style type="text/css">
*{stroke-linecap:butt;stroke-linejoin:round;stroke-miterlimit:100000;}
  </style>
 </defs>
 <g id="figure_1">
  <g id="patch_1">
   <path d="M 0 432 
L 576 432 
L 576 0 
L 0 0 
z
" style="fill:#ffffff;"/>
  </g>
  <g id="axes_1">
   <g id="patch_2">
    <path d="M 62.91 386.64 
L 563.04 386.64 
L 563.04 28.76 
L 62.91 28.76 
z
" style="fill:#ffffff;"/>
   </g>
   <g id="line2d_1">
    <path clip-path="url(#pb436cda111)" d="M 62.91 207.563684 
L 79.307705 207.295005 
L 89.966213 206.91474 
L 98.165066 206.424927 
L 105.544033 205.763493 
L 112.103115 204.933391 
L 117.842311 203.962731 
L 122.761623 202.904837 
L 127.680934 201.595927 
L 131.780361 200.281201 
L 135.879787 198.733138 
L 139.979213 196.92214 
L 144.078639 194.817644 
L 147.35818 192.901823 
L 150.637721 190.762416 
L 153.917262 188.383982 
L 157.196803 185.751828 
L 160.476344 182.852374 
L 163.755885 179.673505 
L 167.035426 176.205128 
L 170.314967 172.439605 
L 173.594508 168.372137 
L 176.874049 164.001474 
L 180.973475 158.116227 
L 185.072902 151.776848 
L 189.172328 145.010805 
L 194.091639 136.387292 
L 199.010951 127.308485 
L 205.570033 114.726963 
L 217.048426 92.597525 
L 221.967738 83.647232 
L 226.067164 76.705917 
L 229.346705 71.607326 
L 231.806361 68.10386 
L 234.266016 64.914863 
L 236.725672 62.075837 
L 239.185328 59.621728 
L 241.644984 57.586518 
L 243.284754 56.478575 
L 244.924525 55.580637 
L 246.564295 54.901541 
L 248.204066 54.44979 
L 249.843836 54.233308 
L 251.483607 54.259576 
L 253.123377 54.535466 
L 254.763148 55.06724 
L 256.402918 55.860481 
L 258.042689 56.92011 
L 259.682459 58.250314 
L 261.32223 59.854475 
L 262.962 61.735171 
L 264.60177 63.894171 
L 266.241541 66.332372 
L 268.701197 70.512947 
L 271.160852 75.317772 
L 273.620508 80.738402 
L 276.080164 86.761665 
L 278.53982 93.369669 
L 280.999475 100.539813 
L 284.279016 110.926868 
L 287.558557 122.187974 
L 290.838098 134.233374 
L 294.937525 150.237159 
L 299.856836 170.53554 
L 306.415918 198.758816 
L 317.894311 248.314495 
L 322.813623 268.43857 
L 326.913049 284.246148 
L 330.19259 296.104555 
L 333.472131 307.155049 
L 336.751672 317.311129 
L 339.211328 324.296696 
L 341.670984 330.712035 
L 344.130639 336.536174 
L 346.590295 341.752758 
L 349.049951 346.35021 
L 351.509607 350.321658 
L 353.149377 352.620196 
L 354.789148 354.639873 
L 356.428918 356.382033 
L 358.068689 357.848822 
L 359.708459 359.043283 
L 361.34823 359.969154 
L 362.988 360.631017 
L 364.62777 361.03408 
L 366.267541 361.184336 
L 367.907311 361.088334 
L 369.547082 360.753251 
L 371.186852 360.186799 
L 372.826623 359.39719 
L 374.466393 358.39314 
L 376.106164 357.183685 
L 378.56582 355.005126 
L 381.025475 352.418888 
L 383.485131 349.459292 
L 385.944787 346.161499 
L 389.224328 341.299986 
L 392.503869 335.98545 
L 396.603295 328.832825 
L 401.522607 319.711519 
L 408.901574 305.459807 
L 417.920311 288.091515 
L 423.659508 277.540765 
L 428.57882 269.003609 
L 432.678246 262.320075 
L 436.777672 256.069737 
L 440.877098 250.277503 
L 444.156639 245.982549 
L 447.43618 241.990845 
L 450.715721 238.300154 
L 453.995262 234.905 
L 457.274803 231.797027 
L 460.554344 228.965587 
L 463.833885 226.398174 
L 467.113426 224.080919 
L 470.392967 221.998881 
L 473.672508 220.136491 
L 477.771934 218.093175 
L 481.871361 216.337201 
L 485.970787 214.838096 
L 490.070213 213.566637 
L 494.989525 212.302569 
L 499.908836 211.282468 
L 505.648033 210.347972 
L 511.38723 209.636507 
L 517.946311 209.036843 
L 526.145164 208.525074 
L 535.983787 208.149479 
L 549.101951 207.890678 
L 563.04 207.77662 
L 563.04 207.77662 
" style="fill:none;stroke:#0000ff;stroke-linecap:square;"/>
   </g>
   <g id="line2d_2">
    <path clip-path="url(#pb436cda111)" d="M 62.91 207.563684 
L 71.928738 207.462529 
L 85.046902 207.147773 
L 94.885525 206.696666 
L 102.264492 206.161367 
L 108.823574 205.482701 
L 114.56277 204.681855 
L 119.482082 203.802061 
L 124.401393 202.705284 
L 129.320705 201.350278 
L 133.420131 199.991193 
L 137.519557 198.392919 
L 141.618984 196.525716 
L 144.898525 194.817644 
L 148.178066 192.901823 
L 151.457607 190.762416 
L 154.737148 188.383982 
L 158.016689 185.751828 
L 161.29623 182.852374 
L 164.57577 179.673505 
L 167.855311 176.205128 
L 171.134852 172.439605 
L 174.414393 168.372137 
L 177.693934 164.001474 
L 181.793361 158.116227 
L 185.892787 151.776848 
L 189.992213 145.010805 
L 194.911525 136.387292 
L 199.830836 127.308485 
L 206.389918 114.726963 
L 217.868311 92.597525 
L 222.787623 83.647232 
L 226.887049 76.705917 
L 230.16659 71.607326 
L 232.626246 68.10386 
L 235.085902 64.914863 
L 237.545557 62.075837 
L 240.005213 59.621728 
L 242.464869 57.586518 
L 244.104639 56.478575 
L 245.74441 55.580637 
L 247.38418 54.901541 
L 249.023951 54.44979 
L 250.663721 54.233308 
L 252.303492 54.259576 
L 253.943262 54.535466 
L 255.583033 55.06724 
L 257.222803 55.860481 
L 258.862574 56.92011 
L 260.502344 58.250314 
L 262.142115 59.854475 
L 263.781885 61.735171 
L 265.421656 63.894171 
L 267.061426 66.332372 
L 269.521082 70.512947 
L 271.980738 75.317772 
L 274.440393 80.738402 
L 276.900049 86.761665 
L 279.359705 93.369669 
L 281.819361 100.539813 
L 285.098902 110.926868 
L 288.378443 122.187974 
L 291.657984 134.233374 
L 295.75741 150.237159 
L 300.676721 170.53554 
L 307.235803 198.758816 
L 318.714197 248.314495 
L 323.633508 268.43857 
L 327.732934 284.246148 
L 331.012475 296.104555 
L 334.292016 307.155049 
L 337.571557 317.311129 
L 340.031213 324.296696 
L 342.490869 330.712035 
L 344.950525 336.536174 
L 347.41018 341.752758 
L 349.869836 346.35021 
L 352.329492 350.321658 
L 353.969262 352.620196 
L 355.609033 354.639873 
L 357.248803 356.382033 
L 358.888574 357.848822 
L 360.528344 359.043283 
L 362.168115 359.969154 
L 363.807885 360.631017 
L 365.447656 361.03408 
L 367.087426 361.184336 
L 368.727197 361.088334 
L 370.366967 360.753251 
L 372.006738 360.186799 
L 373.646508 359.39719 
L 375.286279 358.39314 
L 376.926049 357.183685 
L 379.385705 355.005126 
L 381.845361 352.418888 
L 384.305016 349.459292 
L 386.764672 346.161499 
L 390.044213 341.299986 
L 393.323754 335.98545 
L 397.42318 328.832825 
L 402.342492 319.711519 
L 409.721459 305.459807 
L 418.740197 288.091515 
L 424.479393 277.540765 
L 429.398705 269.003609 
L 433.498131 262.320075 
L 437.597557 256.069737 
L 441.696984 250.277503 
L 444.976525 245.982549 
L 448.256066 241.990845 
L 451.535607 238.300154 
L 454.815148 234.905 
L 458.094689 231.797027 
L 461.37423 228.965587 
L 464.65377 226.398174 
L 467.933311 224.080919 
L 471.212852 221.998881 
L 474.492393 220.136491 
L 478.59182 218.093175 
L 482.691246 216.337201 
L 486.790672 214.838096 
L 490.890098 213.566637 
L 495.80941 212.302569 
L 500.728721 211.282468 
L 506.467918 210.347972 
L 512.207115 209.636507 
L 518.766197 209.036843 
L 526.965049 208.525074 
L 536.803672 208.149479 
L 549.921836 207.890678 
L 563.04 207.77662 
L 563.04 207.77662 
" style="fill:none;stroke:#008000;stroke-linecap:square;"/>
   </g>
   <g id="line2d_3">
    <path clip-path="url(#pb436cda111)" d="M 63.729885 207.55972 
L 79.307705 207.305348 
L 89.966213 206.933752 
L 98.165066 206.454497 
L 105.544033 205.806618 
L 112.103115 204.992709 
L 117.842311 204.040131 
L 122.761623 203.001134 
L 127.680934 201.714645 
L 131.780361 200.421553 
L 135.879787 198.897968 
L 139.979213 197.114482 
L 144.078639 195.040577 
L 147.35818 193.151471 
L 150.637721 191.040749 
L 153.917262 188.692904 
L 157.196803 186.09312 
L 160.476344 183.227674 
L 163.755885 180.084252 
L 167.035426 176.652487 
L 170.314967 172.92438 
L 173.594508 168.894794 
L 176.874049 164.561986 
L 180.973475 158.723245 
L 185.072902 152.428387 
L 189.172328 145.703598 
L 193.271754 138.588576 
L 198.191066 129.612982 
L 204.750148 117.111965 
L 218.688197 90.31154 
L 222.787623 82.931329 
L 226.067164 77.376987 
L 229.346705 72.223086 
L 232.626246 67.554004 
L 235.085902 64.421373 
L 237.545557 61.644582 
L 240.005213 59.258435 
L 241.644984 57.901417 
L 243.284754 56.742718 
L 244.924525 55.791723 
L 246.564295 55.057371 
L 248.204066 54.548269 
L 249.843836 54.272487 
L 251.483607 54.23762 
L 253.123377 54.450693 
L 254.763148 54.918111 
L 256.402918 55.645663 
L 258.042689 56.638414 
L 259.682459 57.900746 
L 261.32223 59.436221 
L 262.962 61.247649 
L 264.60177 63.336988 
L 266.241541 65.705357 
L 267.881311 68.353007 
L 270.340967 72.846387 
L 272.800623 77.960313 
L 275.260279 83.683969 
L 277.719934 90.001839 
L 280.17959 96.893678 
L 282.639246 104.334602 
L 285.918787 115.058494 
L 289.198328 126.624147 
L 292.477869 138.937232 
L 296.577295 155.217533 
L 301.496607 175.753824 
L 308.875574 207.7 
L 317.894311 246.589478 
L 322.813623 266.800706 
L 326.913049 282.706387 
L 330.19259 294.658291 
L 333.472131 305.81409 
L 336.751672 316.085658 
L 339.211328 323.163513 
L 341.670984 329.675185 
L 344.130639 335.598886 
L 346.590295 340.917493 
L 349.049951 345.618631 
L 351.509607 349.694643 
L 353.149377 352.063012 
L 354.789148 354.152351 
L 356.428918 355.963779 
L 358.068689 357.499254 
L 359.708459 358.761586 
L 361.34823 359.754337 
L 362.988 360.481889 
L 364.62777 360.949307 
L 366.267541 361.16238 
L 367.907311 361.127513 
L 369.547082 360.851731 
L 371.186852 360.342629 
L 372.826623 359.608277 
L 374.466393 358.657282 
L 376.106164 357.498583 
L 377.745934 356.141565 
L 380.20559 353.755418 
L 382.665246 350.978627 
L 385.124902 347.845996 
L 387.584557 344.392955 
L 390.864098 339.352314 
L 394.143639 333.890233 
L 398.243066 326.596656 
L 403.162377 317.366931 
L 423.659508 278.276736 
L 428.57882 269.696402 
L 432.678246 262.971613 
L 436.777672 256.676755 
L 440.877098 250.838014 
L 444.156639 246.505206 
L 447.43618 242.47562 
L 450.715721 238.747513 
L 453.995262 235.315748 
L 457.274803 232.172326 
L 460.554344 229.30688 
L 463.833885 226.707096 
L 467.113426 224.359251 
L 470.392967 222.248529 
L 473.672508 220.359423 
L 477.771934 218.285518 
L 481.871361 216.502032 
L 485.970787 214.978447 
L 490.070213 213.685355 
L 494.989525 212.398866 
L 499.908836 211.359869 
L 505.648033 210.407291 
L 511.38723 209.681429 
L 517.946311 209.069061 
L 526.145164 208.545885 
L 535.983787 208.161424 
L 549.101951 207.896082 
L 562.220115 207.77893 
L 562.220115 207.77893 
" style="fill:none;stroke:#ff0000;stroke-linecap:square;"/>
   </g>
   <g id="patch_3">
    <path d="M 62.91 386.64 
L 62.91 28.76 
" style="fill:none;stroke:#000000;stroke-linecap:square;stroke-linejoin:miter;"/>
   </g>
   <g id="patch_4">
    <path d="M 62.91 386.64 
L 563.04 386.64 
" style="fill:none;stroke:#000000;stroke-linecap:square;stroke-linejoin:miter;"/>
   </g>
   <g id="patch_5">
    <path d="M 563.04 386.64 
L 563.04 28.76 
" style="fill:none;stroke:#000000;stroke-linecap:square;stroke-linejoin:miter;"/>
   </g>
   <g id="patch_6">
    <path d="M 62.91 28.76 
L 563.04 28.76 
" style="fill:none;stroke:#000000;stroke-linecap:square;stroke-linejoin:miter;"/>
   </g>
   <g id="matplotlib.axis_1">
    <g id="xtick_1">
     <g id="line2d_4">
      <path clip-path="url(#pb436cda111)" d="M 62.91 386.64 
L 62.91 28.76 
" style="fill:none;stroke:#000000;stroke-dasharray:1.000000,3.000000;stroke-dashoffset:0.0;stroke-width:0.5;"/>
     </g>
     <g id="line2d_5">
      <defs>
       <path d="M 0 0 
L 0 -4 
" id="m03a461efc1" style="stroke:#000000;stroke-width:0.5;"/>
      </defs>
      <g>
       <use style="stroke:#000000;stroke-width:0.5;" x="62.910000000000025" xlink:href="#m03a461efc1" y="386.64"/>
      </g>
     </g>
     <g id="line2d_6">
      <defs>
       <path d="M 0 0 
L 0 4 
" id="m492df70e93" style="stroke:#000000;stroke-width:0.5;"/>
      </defs>
      <g>
       <use style="stroke:#000000;stroke-width:0.5;" x="62.910000000000025" xlink:href="#m492df70e93" y="28.75999999999999"/>
      </g>
     </g>
     <g id="text_1">
      <!-- −3 -->
      <defs>
       <path d="M 10.59375 35.5 
L 73.1875 35.5 
L 73.1875 27.203125 
L 10.59375 27.203125 
z
" id="BitstreamVeraSans-Roman-2212"/>
       <path d="M 40.578125 39.3125 
Q 47.65625 37.796875 51.625 33 
Q 55.609375 28.21875 55.609375 21.1875 
Q 55.609375 10.40625 48.1875 4.484375 
Q 40.765625 -1.421875 27.09375 -1.421875 
Q 22.515625 -1.421875 17.65625 -0.515625 
Q 12.796875 0.390625 7.625 2.203125 
L 7.625 11.71875 
Q 11.71875 9.328125 16.59375 8.109375 
Q 21.484375 6.890625 26.8125 6.890625 
Q 36.078125 6.890625 40.9375 10.546875 
Q 45.796875 14.203125 45.796875 21.1875 
Q 45.796875 27.640625 41.28125 31.265625 
Q 36.765625 34.90625 28.71875 34.90625 
L 20.21875 34.90625 
L 20.21875 43.015625 
L 29.109375 43.015625 
Q 36.375 43.015625 40.234375 45.921875 
Q 44.09375 48.828125 44.09375 54.296875 
Q 44.09375 59.90625 40.109375 62.90625 
Q 36.140625 65.921875 28.71875 65.921875 
Q 24.65625 65.921875 20.015625 65.03125 
Q 15.375 64.15625 9.8125 62.3125 
L 9.8125 71.09375 
Q 15.4375 72.65625 20.34375 73.4375 
Q 25.25 74.21875 29.59375 74.21875 
Q 40.828125 74.21875 47.359375 69.109375 
Q 53.90625 64.015625 53.90625 55.328125 
Q 53.90625 49.265625 50.4375 45.09375 
Q 46.96875 40.921875 40.578125 39.3125 
" id="BitstreamVeraSans-Roman-33"/>
      </defs>
      <g transform="translate(54.064687500000026 399.758125)scale(0.12 -0.12)">
       <use xlink:href="#BitstreamVeraSans-Roman-2212"/>
       <use x="83.7890625" xlink:href="#BitstreamVeraSans-Roman-33"/>
      </g>
     </g>
    </g>
    <g id="xtick_2">
     <g id="line2d_7">
      <path clip-path="url(#pb436cda111)" d="M 144.898525 386.64 
L 144.898525 28.76 
" style="fill:none;stroke:#000000;stroke-dasharray:1.000000,3.000000;stroke-dashoffset:0.0;stroke-width:0.5;"/>
     </g>
     <g id="line2d_8">
      <g>
       <use style="stroke:#000000;stroke-width:0.5;" x="144.89852459016396" xlink:href="#m03a461efc1" y="386.64"/>
      </g>
     </g>
     <g id="line2d_9">
      <g>
       <use style="stroke:#000000;stroke-width:0.5;" x="144.89852459016396" xlink:href="#m492df70e93" y="28.75999999999999"/>
      </g>
     </g>
     <g id="text_2">
      <!-- −2 -->
      <defs>
       <path d="M 19.1875 8.296875 
L 53.609375 8.296875 
L 53.609375 0 
L 7.328125 0 
L 7.328125 8.296875 
Q 12.9375 14.109375 22.625 23.890625 
Q 32.328125 33.6875 34.8125 36.53125 
Q 39.546875 41.84375 41.421875 45.53125 
Q 43.3125 49.21875 43.3125 52.78125 
Q 43.3125 58.59375 39.234375 62.25 
Q 35.15625 65.921875 28.609375 65.921875 
Q 23.96875 65.921875 18.8125 64.3125 
Q 13.671875 62.703125 7.8125 59.421875 
L 7.8125 69.390625 
Q 13.765625 71.78125 18.9375 73 
Q 24.125 74.21875 28.421875 74.21875 
Q 39.75 74.21875 46.484375 68.546875 
Q 53.21875 62.890625 53.21875 53.421875 
Q 53.21875 48.921875 51.53125 44.890625 
Q 49.859375 40.875 45.40625 35.40625 
Q 44.1875 33.984375 37.640625 27.21875 
Q 31.109375 20.453125 19.1875 8.296875 
" id="BitstreamVeraSans-Roman-32"/>
      </defs>
      <g transform="translate(136.05321209016395 399.758125)scale(0.12 -0.12)">
       <use xlink:href="#BitstreamVeraSans-Roman-2212"/>
       <use x="83.7890625" xlink:href="#BitstreamVeraSans-Roman-32"/>
      </g>
     </g>
    </g>
    <g id="xtick_3">
     <g id="line2d_10">
      <path clip-path="url(#pb436cda111)" d="M 226.887049 386.64 
L 226.887049 28.76 
" style="fill:none;stroke:#000000;stroke-dasharray:1.000000,3.000000;stroke-dashoffset:0.0;stroke-width:0.5;"/>
     </g>
     <g id="line2d_11">
      <g>
       <use style="stroke:#000000;stroke-width:0.5;" x="226.8870491803279" xlink:href="#m03a461efc1" y="386.64"/>
      </g>
     </g>
     <g id="line2d_12">
      <g>
       <use style="stroke:#000000;stroke-width:0.5;" x="226.8870491803279" xlink:href="#m492df70e93" y="28.75999999999999"/>
      </g>
     </g>
     <g id="text_3">
      <!-- −1 -->
      <defs>
       <path d="M 12.40625 8.296875 
L 28.515625 8.296875 
L 28.515625 63.921875 
L 10.984375 60.40625 
L 10.984375 69.390625 
L 28.421875 72.90625 
L 38.28125 72.90625 
L 38.28125 8.296875 
L 54.390625 8.296875 
L 54.390625 0 
L 12.40625 0 
z
" id="BitstreamVeraSans-Roman-31"/>
      </defs>
      <g transform="translate(218.0417366803279 399.758125)scale(0.12 -0.12)">
       <use xlink:href="#BitstreamVeraSans-Roman-2212"/>
       <use x="83.7890625" xlink:href="#BitstreamVeraSans-Roman-31"/>
      </g>
     </g>
    </g>
    <g id="xtick_4">
     <g id="line2d_13">
      <path clip-path="url(#pb436cda111)" d="M 308.875574 386.64 
L 308.875574 28.76 
" style="fill:none;stroke:#000000;stroke-dasharray:1.000000,3.000000;stroke-dashoffset:0.0;stroke-width:0.5;"/>
     </g>
     <g id="line2d_14">
      <g>
       <use style="stroke:#000000;stroke-width:0.5;" x="308.8755737704918" xlink:href="#m03a461efc1" y="386.64"/>
      </g>
     </g>
     <g id="line2d_15">
      <g>
       <use style="stroke:#000000;stroke-width:0.5;" x="308.8755737704918" xlink:href="#m492df70e93" y="28.75999999999999"/>
      </g>
     </g>
     <g id="text_4">
      <!-- 0 -->
      <defs>
       <path d="M 31.78125 66.40625 
Q 24.171875 66.40625 20.328125 58.90625 
Q 16.5 51.421875 16.5 36.375 
Q 16.5 21.390625 20.328125 13.890625 
Q 24.171875 6.390625 31.78125 6.390625 
Q 39.453125 6.390625 43.28125 13.890625 
Q 47.125 21.390625 47.125 36.375 
Q 47.125 51.421875 43.28125 58.90625 
Q 39.453125 66.40625 31.78125 66.40625 
M 31.78125 74.21875 
Q 44.046875 74.21875 50.515625 64.515625 
Q 56.984375 54.828125 56.984375 36.375 
Q 56.984375 17.96875 50.515625 8.265625 
Q 44.046875 -1.421875 31.78125 -1.421875 
Q 19.53125 -1.421875 13.0625 8.265625 
Q 6.59375 17.96875 6.59375 36.375 
Q 6.59375 54.828125 13.0625 64.515625 
Q 19.53125 74.21875 31.78125 74.21875 
" id="BitstreamVeraSans-Roman-30"/>
      </defs>
      <g transform="translate(305.05807377049183 399.758125)scale(0.12 -0.12)">
       <use xlink:href="#BitstreamVeraSans-Roman-30"/>
      </g>
     </g>
    </g>
    <g id="xtick_5">
     <g id="line2d_16">
      <path clip-path="url(#pb436cda111)" d="M 390.864098 386.64 
L 390.864098 28.76 
" style="fill:none;stroke:#000000;stroke-dasharray:1.000000,3.000000;stroke-dashoffset:0.0;stroke-width:0.5;"/>
     </g>
     <g id="line2d_17">
      <g>
       <use style="stroke:#000000;stroke-width:0.5;" x="390.86409836065576" xlink:href="#m03a461efc1" y="386.64"/>
      </g>
     </g>
     <g id="line2d_18">
      <g>
       <use style="stroke:#000000;stroke-width:0.5;" x="390.86409836065576" xlink:href="#m492df70e93" y="28.75999999999999"/>
      </g>
     </g>
     <g id="text_5">
      <!-- 1 -->
      <g transform="translate(387.04659836065576 399.758125)scale(0.12 -0.12)">
       <use xlink:href="#BitstreamVeraSans-Roman-31"/>
      </g>
     </g>
    </g>
    <g id="xtick_6">
     <g id="line2d_19">
      <path clip-path="url(#pb436cda111)" d="M 472.852623 386.64 
L 472.852623 28.76 
" style="fill:none;stroke:#000000;stroke-dasharray:1.000000,3.000000;stroke-dashoffset:0.0;stroke-width:0.5;"/>
     </g>
     <g id="line2d_20">
      <g>
       <use style="stroke:#000000;stroke-width:0.5;" x="472.8526229508197" xlink:href="#m03a461efc1" y="386.64"/>
      </g>
     </g>
     <g id="line2d_21">
      <g>
       <use style="stroke:#000000;stroke-width:0.5;" x="472.8526229508197" xlink:href="#m492df70e93" y="28.75999999999999"/>
      </g>
     </g>
     <g id="text_6">
      <!-- 2 -->
      <g transform="translate(469.0351229508197 399.758125)scale(0.12 -0.12)">
       <use xlink:href="#BitstreamVeraSans-Roman-32"/>
      </g>
     </g>
    </g>
    <g id="xtick_7">
     <g id="line2d_22">
      <path clip-path="url(#pb436cda111)" d="M 554.841148 386.64 
L 554.841148 28.76 
" style="fill:none;stroke:#000000;stroke-dasharray:1.000000,3.000000;stroke-dashoffset:0.0;stroke-width:0.5;"/>
     </g>
     <g id="line2d_23">
      <g>
       <use style="stroke:#000000;stroke-width:0.5;" x="554.8411475409837" xlink:href="#m03a461efc1" y="386.64"/>
      </g>
     </g>
     <g id="line2d_24">
      <g>
       <use style="stroke:#000000;stroke-width:0.5;" x="554.8411475409837" xlink:href="#m492df70e93" y="28.75999999999999"/>
      </g>
     </g>
     <g id="text_7">
      <!-- 3 -->
      <g transform="translate(551.0236475409837 399.758125)scale(0.12 -0.12)">
       <use xlink:href="#BitstreamVeraSans-Roman-33"/>
      </g>
     </g>
    </g>
    <g id="text_8">
     <!-- $x \longrightarrow$ -->
     <defs>
      <path d="M 7.8125 2.875 
Q 9.578125 1.515625 12.796875 1.515625 
Q 15.921875 1.515625 18.3125 4.515625 
Q 20.703125 7.515625 21.578125 11.078125 
L 26.125 28.8125 
Q 27.203125 33.640625 27.203125 35.40625 
Q 27.203125 37.890625 25.8125 39.75 
Q 24.421875 41.609375 21.921875 41.609375 
Q 18.75 41.609375 15.96875 39.625 
Q 13.1875 37.640625 11.28125 34.59375 
Q 9.375 31.546875 8.59375 28.421875 
Q 8.40625 27.78125 7.8125 27.78125 
L 6.59375 27.78125 
Q 5.8125 27.78125 5.8125 28.71875 
L 5.8125 29 
Q 6.78125 32.71875 9.125 36.25 
Q 11.46875 39.796875 14.859375 41.984375 
Q 18.265625 44.1875 22.125 44.1875 
Q 25.78125 44.1875 28.734375 42.234375 
Q 31.6875 40.28125 32.90625 36.921875 
Q 34.625 39.984375 37.28125 42.078125 
Q 39.9375 44.1875 43.109375 44.1875 
Q 45.265625 44.1875 47.5 43.421875 
Q 49.75 42.671875 51.171875 41.109375 
Q 52.59375 39.546875 52.59375 37.203125 
Q 52.59375 34.671875 50.953125 32.828125 
Q 49.3125 31 46.78125 31 
Q 45.171875 31 44.09375 32.03125 
Q 43.015625 33.0625 43.015625 34.625 
Q 43.015625 36.71875 44.453125 38.296875 
Q 45.90625 39.890625 47.90625 40.1875 
Q 46.09375 41.609375 42.921875 41.609375 
Q 39.703125 41.609375 37.328125 38.625 
Q 34.96875 35.640625 33.984375 31.984375 
L 29.59375 14.3125 
Q 28.515625 10.296875 28.515625 7.71875 
Q 28.515625 5.171875 29.953125 3.34375 
Q 31.390625 1.515625 33.796875 1.515625 
Q 38.484375 1.515625 42.15625 5.640625 
Q 45.84375 9.765625 47.015625 14.703125 
Q 47.21875 15.28125 47.796875 15.28125 
L 49.03125 15.28125 
Q 49.421875 15.28125 49.65625 15.015625 
Q 49.90625 14.75 49.90625 14.40625 
Q 49.90625 14.3125 49.8125 14.109375 
Q 48.390625 8.15625 43.84375 3.515625 
Q 39.3125 -1.125 33.59375 -1.125 
Q 29.9375 -1.125 26.984375 0.84375 
Q 24.03125 2.828125 22.796875 6.203125 
Q 21.234375 3.265625 18.46875 1.0625 
Q 15.71875 -1.125 12.59375 -1.125 
Q 10.453125 -1.125 8.171875 -0.359375 
Q 5.90625 0.390625 4.484375 1.953125 
Q 3.078125 3.515625 3.078125 5.90625 
Q 3.078125 8.25 4.703125 10.171875 
Q 6.34375 12.109375 8.796875 12.109375 
Q 10.453125 12.109375 11.578125 11.109375 
Q 12.703125 10.109375 12.703125 8.5 
Q 12.703125 6.390625 11.296875 4.828125 
Q 9.90625 3.265625 7.8125 2.875 
" id="Cmmi10-78"/>
      <path d="M 151.90625 25.796875 
L 151.90625 24.796875 
Q 140.40625 19.90625 128.09375 5.703125 
L 126.09375 7.59375 
Q 128.90625 11.59375 134.296875 17.203125 
Q 135.703125 18.59375 135.703125 20 
Q 135.703125 22 133.09375 22 
L 5.5 22 
L 5.5 28.59375 
L 133.203125 28.59375 
Q 134 28.59375 134.890625 29.34375 
Q 135.796875 30.09375 135.796875 30.796875 
Q 135.796875 31.90625 134.40625 33.296875 
Q 129.5 38 126.203125 43 
L 128.203125 44.90625 
Q 140.703125 30.5 151.90625 25.796875 
" id="STIXGeneral-Regular-27f6"/>
     </defs>
     <g transform="translate(297.97499999999997 416.371875)scale(0.12 -0.12)">
      <use transform="translate(0.0 0.09375)" xlink:href="#Cmmi10-78"/>
      <use transform="translate(74.638671875 0.09375)" xlink:href="#STIXGeneral-Regular-27f6"/>
     </g>
    </g>
   </g>
   <g id="matplotlib.axis_2">
    <g id="ytick_1">
     <g id="line2d_25">
      <path clip-path="url(#pb436cda111)" d="M 62.91 386.64 
L 563.04 386.64 
" style="fill:none;stroke:#000000;stroke-dasharray:1.000000,3.000000;stroke-dashoffset:0.0;stroke-width:0.5;"/>
     </g>
     <g id="line2d_26">
      <defs>
       <path d="M 0 0 
L 4 0 
" id="m2963bd6faa" style="stroke:#000000;stroke-width:0.5;"/>
      </defs>
      <g>
       <use style="stroke:#000000;stroke-width:0.5;" x="62.910000000000004" xlink:href="#m2963bd6faa" y="386.64"/>
      </g>
     </g>
     <g id="line2d_27">
      <defs>
       <path d="M 0 0 
L -4 0 
" id="m6b2533a104" style="stroke:#000000;stroke-width:0.5;"/>
      </defs>
      <g>
       <use style="stroke:#000000;stroke-width:0.5;" x="563.04" xlink:href="#m6b2533a104" y="386.64"/>
      </g>
     </g>
     <g id="text_9">
      <!-- −1.0 -->
      <defs>
       <path d="M 10.6875 12.40625 
L 21 12.40625 
L 21 0 
L 10.6875 0 
z
" id="BitstreamVeraSans-Roman-2e"/>
      </defs>
      <g transform="translate(29.770625000000006 389.95125)scale(0.12 -0.12)">
       <use xlink:href="#BitstreamVeraSans-Roman-2212"/>
       <use x="83.7890625" xlink:href="#BitstreamVeraSans-Roman-31"/>
       <use x="147.412109375" xlink:href="#BitstreamVeraSans-Roman-2e"/>
       <use x="179.19921875" xlink:href="#BitstreamVeraSans-Roman-30"/>
      </g>
     </g>
    </g>
    <g id="ytick_2">
     <g id="line2d_28">
      <path clip-path="url(#pb436cda111)" d="M 62.91 297.17 
L 563.04 297.17 
" style="fill:none;stroke:#000000;stroke-dasharray:1.000000,3.000000;stroke-dashoffset:0.0;stroke-width:0.5;"/>
     </g>
     <g id="line2d_29">
      <g>
       <use style="stroke:#000000;stroke-width:0.5;" x="62.910000000000004" xlink:href="#m2963bd6faa" y="297.17"/>
      </g>
     </g>
     <g id="line2d_30">
      <g>
       <use style="stroke:#000000;stroke-width:0.5;" x="563.04" xlink:href="#m6b2533a104" y="297.17"/>
      </g>
     </g>
     <g id="text_10">
      <!-- −0.5 -->
      <defs>
       <path d="M 10.796875 72.90625 
L 49.515625 72.90625 
L 49.515625 64.59375 
L 19.828125 64.59375 
L 19.828125 46.734375 
Q 21.96875 47.46875 24.109375 47.828125 
Q 26.265625 48.1875 28.421875 48.1875 
Q 40.625 48.1875 47.75 41.5 
Q 54.890625 34.8125 54.890625 23.390625 
Q 54.890625 11.625 47.5625 5.09375 
Q 40.234375 -1.421875 26.90625 -1.421875 
Q 22.3125 -1.421875 17.546875 -0.640625 
Q 12.796875 0.140625 7.71875 1.703125 
L 7.71875 11.625 
Q 12.109375 9.234375 16.796875 8.0625 
Q 21.484375 6.890625 26.703125 6.890625 
Q 35.15625 6.890625 40.078125 11.328125 
Q 45.015625 15.765625 45.015625 23.390625 
Q 45.015625 31 40.078125 35.4375 
Q 35.15625 39.890625 26.703125 39.890625 
Q 22.75 39.890625 18.8125 39.015625 
Q 14.890625 38.140625 10.796875 36.28125 
z
" id="BitstreamVeraSans-Roman-35"/>
      </defs>
      <g transform="translate(29.770625000000006 300.48125000000005)scale(0.12 -0.12)">
       <use xlink:href="#BitstreamVeraSans-Roman-2212"/>
       <use x="83.7890625" xlink:href="#BitstreamVeraSans-Roman-30"/>
       <use x="147.412109375" xlink:href="#BitstreamVeraSans-Roman-2e"/>
       <use x="179.19921875" xlink:href="#BitstreamVeraSans-Roman-35"/>
      </g>
     </g>
    </g>
    <g id="ytick_3">
     <g id="line2d_31">
      <path clip-path="url(#pb436cda111)" d="M 62.91 207.7 
L 563.04 207.7 
" style="fill:none;stroke:#000000;stroke-dasharray:1.000000,3.000000;stroke-dashoffset:0.0;stroke-width:0.5;"/>
     </g>
     <g id="line2d_32">
      <g>
       <use style="stroke:#000000;stroke-width:0.5;" x="62.910000000000004" xlink:href="#m2963bd6faa" y="207.70000000000002"/>
      </g>
     </g>
     <g id="line2d_33">
      <g>
       <use style="stroke:#000000;stroke-width:0.5;" x="563.04" xlink:href="#m6b2533a104" y="207.70000000000002"/>
      </g>
     </g>
     <g id="text_11">
      <!-- 0.0 -->
      <g transform="translate(39.82625 211.01125000000002)scale(0.12 -0.12)">
       <use xlink:href="#BitstreamVeraSans-Roman-30"/>
       <use x="63.623046875" xlink:href="#BitstreamVeraSans-Roman-2e"/>
       <use x="95.41015625" xlink:href="#BitstreamVeraSans-Roman-30"/>
      </g>
     </g>
    </g>
    <g id="ytick_4">
     <g id="line2d_34">
      <path clip-path="url(#pb436cda111)" d="M 62.91 118.23 
L 563.04 118.23 
" style="fill:none;stroke:#000000;stroke-dasharray:1.000000,3.000000;stroke-dashoffset:0.0;stroke-width:0.5;"/>
     </g>
     <g id="line2d_35">
      <g>
       <use style="stroke:#000000;stroke-width:0.5;" x="62.910000000000004" xlink:href="#m2963bd6faa" y="118.23000000000002"/>
      </g>
     </g>
     <g id="line2d_36">
      <g>
       <use style="stroke:#000000;stroke-width:0.5;" x="563.04" xlink:href="#m6b2533a104" y="118.23000000000002"/>
      </g>
     </g>
     <g id="text_12">
      <!-- 0.5 -->
      <g transform="translate(39.82625 121.54124999999999)scale(0.12 -0.12)">
       <use xlink:href="#BitstreamVeraSans-Roman-30"/>
       <use x="63.623046875" xlink:href="#BitstreamVeraSans-Roman-2e"/>
       <use x="95.41015625" xlink:href="#BitstreamVeraSans-Roman-35"/>
      </g>
     </g>
    </g>
    <g id="ytick_5">
     <g id="line2d_37">
      <path clip-path="url(#pb436cda111)" d="M 62.91 28.76 
L 563.04 28.76 
" style="fill:none;stroke:#000000;stroke-dasharray:1.000000,3.000000;stroke-dashoffset:0.0;stroke-width:0.5;"/>
     </g>
     <g id="line2d_38">
      <g>
       <use style="stroke:#000000;stroke-width:0.5;" x="62.910000000000004" xlink:href="#m2963bd6faa" y="28.76000000000002"/>
      </g>
     </g>
     <g id="line2d_39">
      <g>
       <use style="stroke:#000000;stroke-width:0.5;" x="563.04" xlink:href="#m6b2533a104" y="28.76000000000002"/>
      </g>
     </g>
     <g id="text_13">
      <!-- 1.0 -->
      <g transform="translate(39.82625 32.071249999999964)scale(0.12 -0.12)">
       <use xlink:href="#BitstreamVeraSans-Roman-31"/>
       <use x="63.623046875" xlink:href="#BitstreamVeraSans-Roman-2e"/>
       <use x="95.41015625" xlink:href="#BitstreamVeraSans-Roman-30"/>
      </g>
     </g>
    </g>
    <g id="text_14">
     <!-- $y \longrightarrow$ -->
     <defs>
      <path d="M 8.40625 -14.3125 
Q 10.5 -17.921875 15.71875 -17.921875 
Q 20.453125 -17.921875 23.921875 -14.59375 
Q 27.390625 -11.28125 29.515625 -6.5625 
Q 31.640625 -1.859375 32.8125 3.078125 
Q 28.375 -1.125 23.1875 -1.125 
Q 19.234375 -1.125 16.453125 0.234375 
Q 13.671875 1.609375 12.125 4.3125 
Q 10.59375 7.03125 10.59375 10.890625 
Q 10.59375 14.15625 11.46875 17.59375 
Q 12.359375 21.046875 13.9375 25.265625 
Q 15.53125 29.5 16.703125 32.625 
Q 18.015625 36.28125 18.015625 38.625 
Q 18.015625 41.609375 15.828125 41.609375 
Q 11.859375 41.609375 9.296875 37.53125 
Q 6.734375 33.453125 5.515625 28.421875 
Q 5.328125 27.78125 4.6875 27.78125 
L 3.515625 27.78125 
Q 2.6875 27.78125 2.6875 28.71875 
L 2.6875 29 
Q 4.296875 34.96875 7.609375 39.578125 
Q 10.9375 44.1875 16.015625 44.1875 
Q 19.578125 44.1875 22.046875 41.84375 
Q 24.515625 39.5 24.515625 35.890625 
Q 24.515625 34.03125 23.6875 31.984375 
Q 23.25 30.765625 21.6875 26.65625 
Q 20.125 22.5625 19.28125 19.875 
Q 18.453125 17.1875 17.921875 14.59375 
Q 17.390625 12.015625 17.390625 9.421875 
Q 17.390625 6.109375 18.796875 3.8125 
Q 20.21875 1.515625 23.296875 1.515625 
Q 29.5 1.515625 34.421875 9.078125 
L 42 39.890625 
Q 42.328125 41.21875 43.546875 42.15625 
Q 44.78125 43.109375 46.1875 43.109375 
Q 47.40625 43.109375 48.3125 42.328125 
Q 49.21875 41.546875 49.21875 40.28125 
Q 49.21875 39.703125 49.125 39.5 
L 39.203125 -0.296875 
Q 37.890625 -5.421875 34.375 -10.109375 
Q 30.859375 -14.796875 25.90625 -17.65625 
Q 20.953125 -20.515625 15.578125 -20.515625 
Q 12.984375 -20.515625 10.4375 -19.5 
Q 7.90625 -18.5 6.34375 -16.5 
Q 4.78125 -14.5 4.78125 -11.8125 
Q 4.78125 -9.078125 6.390625 -7.078125 
Q 8.015625 -5.078125 10.6875 -5.078125 
Q 12.3125 -5.078125 13.40625 -6.078125 
Q 14.5 -7.078125 14.5 -8.6875 
Q 14.5 -10.984375 12.78125 -12.6875 
Q 11.078125 -14.40625 8.796875 -14.40625 
Q 8.6875 -14.359375 8.59375 -14.328125 
Q 8.5 -14.3125 8.40625 -14.3125 
" id="Cmmi10-79"/>
     </defs>
     <g transform="translate(22.250625000000007 222.22000000000003)rotate(-90.0)scale(0.12 -0.12)">
      <use transform="translate(0.0 0.09375)" xlink:href="#Cmmi10-79"/>
      <use transform="translate(66.58203125 0.09375)" xlink:href="#STIXGeneral-Regular-27f6"/>
     </g>
    </g>
   </g>
   <g id="text_15">
    <!-- Different numerical methods of differentiation -->
    <defs>
     <path d="M 41.109375 46.296875 
Q 39.59375 47.171875 37.8125 47.578125 
Q 36.03125 48 33.890625 48 
Q 26.265625 48 22.1875 43.046875 
Q 18.109375 38.09375 18.109375 28.8125 
L 18.109375 0 
L 9.078125 0 
L 9.078125 54.6875 
L 18.109375 54.6875 
L 18.109375 46.1875 
Q 20.953125 51.171875 25.484375 53.578125 
Q 30.03125 56 36.53125 56 
Q 37.453125 56 38.578125 55.875 
Q 39.703125 55.765625 41.0625 55.515625 
z
" id="BitstreamVeraSans-Roman-72"/>
     <path d="M 52 44.1875 
Q 55.375 50.25 60.0625 53.125 
Q 64.75 56 71.09375 56 
Q 79.640625 56 84.28125 50.015625 
Q 88.921875 44.046875 88.921875 33.015625 
L 88.921875 0 
L 79.890625 0 
L 79.890625 32.71875 
Q 79.890625 40.578125 77.09375 44.375 
Q 74.3125 48.1875 68.609375 48.1875 
Q 61.625 48.1875 57.5625 43.546875 
Q 53.515625 38.921875 53.515625 30.90625 
L 53.515625 0 
L 44.484375 0 
L 44.484375 32.71875 
Q 44.484375 40.625 41.703125 44.40625 
Q 38.921875 48.1875 33.109375 48.1875 
Q 26.21875 48.1875 22.15625 43.53125 
Q 18.109375 38.875 18.109375 30.90625 
L 18.109375 0 
L 9.078125 0 
L 9.078125 54.6875 
L 18.109375 54.6875 
L 18.109375 46.1875 
Q 21.1875 51.21875 25.484375 53.609375 
Q 29.78125 56 35.6875 56 
Q 41.65625 56 45.828125 52.96875 
Q 50 49.953125 52 44.1875 
" id="BitstreamVeraSans-Roman-6d"/>
     <path d="M 30.609375 48.390625 
Q 23.390625 48.390625 19.1875 42.75 
Q 14.984375 37.109375 14.984375 27.296875 
Q 14.984375 17.484375 19.15625 11.84375 
Q 23.34375 6.203125 30.609375 6.203125 
Q 37.796875 6.203125 41.984375 11.859375 
Q 46.1875 17.53125 46.1875 27.296875 
Q 46.1875 37.015625 41.984375 42.703125 
Q 37.796875 48.390625 30.609375 48.390625 
M 30.609375 56 
Q 42.328125 56 49.015625 48.375 
Q 55.71875 40.765625 55.71875 27.296875 
Q 55.71875 13.875 49.015625 6.21875 
Q 42.328125 -1.421875 30.609375 -1.421875 
Q 18.84375 -1.421875 12.171875 6.21875 
Q 5.515625 13.875 5.515625 27.296875 
Q 5.515625 40.765625 12.171875 48.375 
Q 18.84375 56 30.609375 56 
" id="BitstreamVeraSans-Roman-6f"/>
     <path d="M 34.28125 27.484375 
Q 23.390625 27.484375 19.1875 25 
Q 14.984375 22.515625 14.984375 16.5 
Q 14.984375 11.71875 18.140625 8.90625 
Q 21.296875 6.109375 26.703125 6.109375 
Q 34.1875 6.109375 38.703125 11.40625 
Q 43.21875 16.703125 43.21875 25.484375 
L 43.21875 27.484375 
z
M 52.203125 31.203125 
L 52.203125 0 
L 43.21875 0 
L 43.21875 8.296875 
Q 40.140625 3.328125 35.546875 0.953125 
Q 30.953125 -1.421875 24.3125 -1.421875 
Q 15.921875 -1.421875 10.953125 3.296875 
Q 6 8.015625 6 15.921875 
Q 6 25.140625 12.171875 29.828125 
Q 18.359375 34.515625 30.609375 34.515625 
L 43.21875 34.515625 
L 43.21875 35.40625 
Q 43.21875 41.609375 39.140625 45 
Q 35.0625 48.390625 27.6875 48.390625 
Q 23 48.390625 18.546875 47.265625 
Q 14.109375 46.140625 10.015625 43.890625 
L 10.015625 52.203125 
Q 14.9375 54.109375 19.578125 55.046875 
Q 24.21875 56 28.609375 56 
Q 40.484375 56 46.34375 49.84375 
Q 52.203125 43.703125 52.203125 31.203125 
" id="BitstreamVeraSans-Roman-61"/>
     <path d="M 54.890625 33.015625 
L 54.890625 0 
L 45.90625 0 
L 45.90625 32.71875 
Q 45.90625 40.484375 42.875 44.328125 
Q 39.84375 48.1875 33.796875 48.1875 
Q 26.515625 48.1875 22.3125 43.546875 
Q 18.109375 38.921875 18.109375 30.90625 
L 18.109375 0 
L 9.078125 0 
L 9.078125 75.984375 
L 18.109375 75.984375 
L 18.109375 46.1875 
Q 21.34375 51.125 25.703125 53.5625 
Q 30.078125 56 35.796875 56 
Q 45.21875 56 50.046875 50.171875 
Q 54.890625 44.34375 54.890625 33.015625 
" id="BitstreamVeraSans-Roman-68"/>
     <path d="M 19.671875 64.796875 
L 19.671875 8.109375 
L 31.59375 8.109375 
Q 46.6875 8.109375 53.6875 14.9375 
Q 60.6875 21.78125 60.6875 36.53125 
Q 60.6875 51.171875 53.6875 57.984375 
Q 46.6875 64.796875 31.59375 64.796875 
z
M 9.8125 72.90625 
L 30.078125 72.90625 
Q 51.265625 72.90625 61.171875 64.09375 
Q 71.09375 55.28125 71.09375 36.53125 
Q 71.09375 17.671875 61.125 8.828125 
Q 51.171875 0 30.078125 0 
L 9.8125 0 
z
" id="BitstreamVeraSans-Roman-44"/>
     <path d="M 9.421875 54.6875 
L 18.40625 54.6875 
L 18.40625 0 
L 9.421875 0 
z
M 9.421875 75.984375 
L 18.40625 75.984375 
L 18.40625 64.59375 
L 9.421875 64.59375 
z
" id="BitstreamVeraSans-Roman-69"/>
     <path d="M 54.890625 33.015625 
L 54.890625 0 
L 45.90625 0 
L 45.90625 32.71875 
Q 45.90625 40.484375 42.875 44.328125 
Q 39.84375 48.1875 33.796875 48.1875 
Q 26.515625 48.1875 22.3125 43.546875 
Q 18.109375 38.921875 18.109375 30.90625 
L 18.109375 0 
L 9.078125 0 
L 9.078125 54.6875 
L 18.109375 54.6875 
L 18.109375 46.1875 
Q 21.34375 51.125 25.703125 53.5625 
Q 30.078125 56 35.796875 56 
Q 45.21875 56 50.046875 50.171875 
Q 54.890625 44.34375 54.890625 33.015625 
" id="BitstreamVeraSans-Roman-6e"/>
     <path d="M 9.421875 75.984375 
L 18.40625 75.984375 
L 18.40625 0 
L 9.421875 0 
z
" id="BitstreamVeraSans-Roman-6c"/>
     <path d="M 18.3125 70.21875 
L 18.3125 54.6875 
L 36.8125 54.6875 
L 36.8125 47.703125 
L 18.3125 47.703125 
L 18.3125 18.015625 
Q 18.3125 11.328125 20.140625 9.421875 
Q 21.96875 7.515625 27.59375 7.515625 
L 36.8125 7.515625 
L 36.8125 0 
L 27.59375 0 
Q 17.1875 0 13.234375 3.875 
Q 9.28125 7.765625 9.28125 18.015625 
L 9.28125 47.703125 
L 2.6875 47.703125 
L 2.6875 54.6875 
L 9.28125 54.6875 
L 9.28125 70.21875 
z
" id="BitstreamVeraSans-Roman-74"/>
     <path d="M 44.28125 53.078125 
L 44.28125 44.578125 
Q 40.484375 46.53125 36.375 47.5 
Q 32.28125 48.484375 27.875 48.484375 
Q 21.1875 48.484375 17.84375 46.4375 
Q 14.5 44.390625 14.5 40.28125 
Q 14.5 37.15625 16.890625 35.375 
Q 19.28125 33.59375 26.515625 31.984375 
L 29.59375 31.296875 
Q 39.15625 29.25 43.1875 25.515625 
Q 47.21875 21.78125 47.21875 15.09375 
Q 47.21875 7.46875 41.1875 3.015625 
Q 35.15625 -1.421875 24.609375 -1.421875 
Q 20.21875 -1.421875 15.453125 -0.5625 
Q 10.6875 0.296875 5.421875 2 
L 5.421875 11.28125 
Q 10.40625 8.6875 15.234375 7.390625 
Q 20.0625 6.109375 24.8125 6.109375 
Q 31.15625 6.109375 34.5625 8.28125 
Q 37.984375 10.453125 37.984375 14.40625 
Q 37.984375 18.0625 35.515625 20.015625 
Q 33.0625 21.96875 24.703125 23.78125 
L 21.578125 24.515625 
Q 13.234375 26.265625 9.515625 29.90625 
Q 5.8125 33.546875 5.8125 39.890625 
Q 5.8125 47.609375 11.28125 51.796875 
Q 16.75 56 26.8125 56 
Q 31.78125 56 36.171875 55.265625 
Q 40.578125 54.546875 44.28125 53.078125 
" id="BitstreamVeraSans-Roman-73"/>
     <path d="M 8.5 21.578125 
L 8.5 54.6875 
L 17.484375 54.6875 
L 17.484375 21.921875 
Q 17.484375 14.15625 20.5 10.265625 
Q 23.53125 6.390625 29.59375 6.390625 
Q 36.859375 6.390625 41.078125 11.03125 
Q 45.3125 15.671875 45.3125 23.6875 
L 45.3125 54.6875 
L 54.296875 54.6875 
L 54.296875 0 
L 45.3125 0 
L 45.3125 8.40625 
Q 42.046875 3.421875 37.71875 1 
Q 33.40625 -1.421875 27.6875 -1.421875 
Q 18.265625 -1.421875 13.375 4.4375 
Q 8.5 10.296875 8.5 21.578125 
" id="BitstreamVeraSans-Roman-75"/>
     <path id="BitstreamVeraSans-Roman-20"/>
     <path d="M 37.109375 75.984375 
L 37.109375 68.5 
L 28.515625 68.5 
Q 23.6875 68.5 21.796875 66.546875 
Q 19.921875 64.59375 19.921875 59.515625 
L 19.921875 54.6875 
L 34.71875 54.6875 
L 34.71875 47.703125 
L 19.921875 47.703125 
L 19.921875 0 
L 10.890625 0 
L 10.890625 47.703125 
L 2.296875 47.703125 
L 2.296875 54.6875 
L 10.890625 54.6875 
L 10.890625 58.5 
Q 10.890625 67.625 15.140625 71.796875 
Q 19.390625 75.984375 28.609375 75.984375 
z
" id="BitstreamVeraSans-Roman-66"/>
     <path d="M 45.40625 46.390625 
L 45.40625 75.984375 
L 54.390625 75.984375 
L 54.390625 0 
L 45.40625 0 
L 45.40625 8.203125 
Q 42.578125 3.328125 38.25 0.953125 
Q 33.9375 -1.421875 27.875 -1.421875 
Q 17.96875 -1.421875 11.734375 6.484375 
Q 5.515625 14.40625 5.515625 27.296875 
Q 5.515625 40.1875 11.734375 48.09375 
Q 17.96875 56 27.875 56 
Q 33.9375 56 38.25 53.625 
Q 42.578125 51.265625 45.40625 46.390625 
M 14.796875 27.296875 
Q 14.796875 17.390625 18.875 11.75 
Q 22.953125 6.109375 30.078125 6.109375 
Q 37.203125 6.109375 41.296875 11.75 
Q 45.40625 17.390625 45.40625 27.296875 
Q 45.40625 37.203125 41.296875 42.84375 
Q 37.203125 48.484375 30.078125 48.484375 
Q 22.953125 48.484375 18.875 42.84375 
Q 14.796875 37.203125 14.796875 27.296875 
" id="BitstreamVeraSans-Roman-64"/>
     <path d="M 56.203125 29.59375 
L 56.203125 25.203125 
L 14.890625 25.203125 
Q 15.484375 15.921875 20.484375 11.0625 
Q 25.484375 6.203125 34.421875 6.203125 
Q 39.59375 6.203125 44.453125 7.46875 
Q 49.3125 8.734375 54.109375 11.28125 
L 54.109375 2.78125 
Q 49.265625 0.734375 44.1875 -0.34375 
Q 39.109375 -1.421875 33.890625 -1.421875 
Q 20.796875 -1.421875 13.15625 6.1875 
Q 5.515625 13.8125 5.515625 26.8125 
Q 5.515625 40.234375 12.765625 48.109375 
Q 20.015625 56 32.328125 56 
Q 43.359375 56 49.78125 48.890625 
Q 56.203125 41.796875 56.203125 29.59375 
M 47.21875 32.234375 
Q 47.125 39.59375 43.09375 43.984375 
Q 39.0625 48.390625 32.421875 48.390625 
Q 24.90625 48.390625 20.390625 44.140625 
Q 15.875 39.890625 15.1875 32.171875 
z
" id="BitstreamVeraSans-Roman-65"/>
     <path d="M 48.78125 52.59375 
L 48.78125 44.1875 
Q 44.96875 46.296875 41.140625 47.34375 
Q 37.3125 48.390625 33.40625 48.390625 
Q 24.65625 48.390625 19.8125 42.84375 
Q 14.984375 37.3125 14.984375 27.296875 
Q 14.984375 17.28125 19.8125 11.734375 
Q 24.65625 6.203125 33.40625 6.203125 
Q 37.3125 6.203125 41.140625 7.25 
Q 44.96875 8.296875 48.78125 10.40625 
L 48.78125 2.09375 
Q 45.015625 0.34375 40.984375 -0.53125 
Q 36.96875 -1.421875 32.421875 -1.421875 
Q 20.0625 -1.421875 12.78125 6.34375 
Q 5.515625 14.109375 5.515625 27.296875 
Q 5.515625 40.671875 12.859375 48.328125 
Q 20.21875 56 33.015625 56 
Q 37.15625 56 41.109375 55.140625 
Q 45.0625 54.296875 48.78125 52.59375 
" id="BitstreamVeraSans-Roman-63"/>
    </defs>
    <g transform="translate(146.559375 23.75999999999999)scale(0.144 -0.144)">
     <use xlink:href="#BitstreamVeraSans-Roman-44"/>
     <use x="77.001953125" xlink:href="#BitstreamVeraSans-Roman-69"/>
     <use x="104.78515625" xlink:href="#BitstreamVeraSans-Roman-66"/>
     <use x="139.990234375" xlink:href="#BitstreamVeraSans-Roman-66"/>
     <use x="175.1953125" xlink:href="#BitstreamVeraSans-Roman-65"/>
     <use x="236.71875" xlink:href="#BitstreamVeraSans-Roman-72"/>
     <use x="277.80078125" xlink:href="#BitstreamVeraSans-Roman-65"/>
     <use x="339.32421875" xlink:href="#BitstreamVeraSans-Roman-6e"/>
     <use x="402.703125" xlink:href="#BitstreamVeraSans-Roman-74"/>
     <use x="441.912109375" xlink:href="#BitstreamVeraSans-Roman-20"/>
     <use x="473.69921875" xlink:href="#BitstreamVeraSans-Roman-6e"/>
     <use x="537.078125" xlink:href="#BitstreamVeraSans-Roman-75"/>
     <use x="600.45703125" xlink:href="#BitstreamVeraSans-Roman-6d"/>
     <use x="697.869140625" xlink:href="#BitstreamVeraSans-Roman-65"/>
     <use x="759.392578125" xlink:href="#BitstreamVeraSans-Roman-72"/>
     <use x="800.505859375" xlink:href="#BitstreamVeraSans-Roman-69"/>
     <use x="828.2890625" xlink:href="#BitstreamVeraSans-Roman-63"/>
     <use x="883.26953125" xlink:href="#BitstreamVeraSans-Roman-61"/>
     <use x="944.548828125" xlink:href="#BitstreamVeraSans-Roman-6c"/>
     <use x="972.33203125" xlink:href="#BitstreamVeraSans-Roman-20"/>
     <use x="1004.119140625" xlink:href="#BitstreamVeraSans-Roman-6d"/>
     <use x="1101.53125" xlink:href="#BitstreamVeraSans-Roman-65"/>
     <use x="1163.0546875" xlink:href="#BitstreamVeraSans-Roman-74"/>
     <use x="1202.263671875" xlink:href="#BitstreamVeraSans-Roman-68"/>
     <use x="1265.642578125" xlink:href="#BitstreamVeraSans-Roman-6f"/>
     <use x="1326.82421875" xlink:href="#BitstreamVeraSans-Roman-64"/>
     <use x="1390.30078125" xlink:href="#BitstreamVeraSans-Roman-73"/>
     <use x="1442.400390625" xlink:href="#BitstreamVeraSans-Roman-20"/>
     <use x="1474.1875" xlink:href="#BitstreamVeraSans-Roman-6f"/>
     <use x="1535.369140625" xlink:href="#BitstreamVeraSans-Roman-66"/>
     <use x="1570.57421875" xlink:href="#BitstreamVeraSans-Roman-20"/>
     <use x="1602.361328125" xlink:href="#BitstreamVeraSans-Roman-64"/>
     <use x="1665.837890625" xlink:href="#BitstreamVeraSans-Roman-69"/>
     <use x="1693.62109375" xlink:href="#BitstreamVeraSans-Roman-66"/>
     <use x="1728.826171875" xlink:href="#BitstreamVeraSans-Roman-66"/>
     <use x="1764.03125" xlink:href="#BitstreamVeraSans-Roman-65"/>
     <use x="1825.5546875" xlink:href="#BitstreamVeraSans-Roman-72"/>
     <use x="1866.63671875" xlink:href="#BitstreamVeraSans-Roman-65"/>
     <use x="1928.16015625" xlink:href="#BitstreamVeraSans-Roman-6e"/>
     <use x="1991.5390625" xlink:href="#BitstreamVeraSans-Roman-74"/>
     <use x="2030.748046875" xlink:href="#BitstreamVeraSans-Roman-69"/>
     <use x="2058.53125" xlink:href="#BitstreamVeraSans-Roman-61"/>
     <use x="2119.810546875" xlink:href="#BitstreamVeraSans-Roman-74"/>
     <use x="2159.01953125" xlink:href="#BitstreamVeraSans-Roman-69"/>
     <use x="2186.802734375" xlink:href="#BitstreamVeraSans-Roman-6f"/>
     <use x="2247.984375" xlink:href="#BitstreamVeraSans-Roman-6e"/>
    </g>
   </g>
   <g id="legend_1">
    <g id="patch_7">
     <path d="M 351.405 103.6895 
L 555.84 103.6895 
L 555.84 35.96 
L 351.405 35.96 
z
" style="fill:#ffffff;stroke:#000000;stroke-linejoin:miter;"/>
    </g>
    <g id="line2d_40">
     <path d="M 361.485 47.62175 
L 381.645 47.62175 
" style="fill:none;stroke:#0000ff;stroke-linecap:square;"/>
    </g>
    <g id="line2d_41"/>
    <g id="text_16">
     <!-- Forward difference  -->
     <defs>
      <path d="M 9.8125 72.90625 
L 51.703125 72.90625 
L 51.703125 64.59375 
L 19.671875 64.59375 
L 19.671875 43.109375 
L 48.578125 43.109375 
L 48.578125 34.8125 
L 19.671875 34.8125 
L 19.671875 0 
L 9.8125 0 
z
" id="BitstreamVeraSans-Roman-46"/>
      <path d="M 4.203125 54.6875 
L 13.1875 54.6875 
L 24.421875 12.015625 
L 35.59375 54.6875 
L 46.1875 54.6875 
L 57.421875 12.015625 
L 68.609375 54.6875 
L 77.59375 54.6875 
L 63.28125 0 
L 52.6875 0 
L 40.921875 44.828125 
L 29.109375 0 
L 18.5 0 
z
" id="BitstreamVeraSans-Roman-77"/>
     </defs>
     <g transform="translate(397.48499999999996 52.661749999999984)scale(0.144 -0.144)">
      <use xlink:href="#BitstreamVeraSans-Roman-46"/>
      <use x="57.47265625" xlink:href="#BitstreamVeraSans-Roman-6f"/>
      <use x="118.654296875" xlink:href="#BitstreamVeraSans-Roman-72"/>
      <use x="159.767578125" xlink:href="#BitstreamVeraSans-Roman-77"/>
      <use x="241.5546875" xlink:href="#BitstreamVeraSans-Roman-61"/>
      <use x="302.833984375" xlink:href="#BitstreamVeraSans-Roman-72"/>
      <use x="343.931640625" xlink:href="#BitstreamVeraSans-Roman-64"/>
      <use x="407.408203125" xlink:href="#BitstreamVeraSans-Roman-20"/>
      <use x="439.1953125" xlink:href="#BitstreamVeraSans-Roman-64"/>
      <use x="502.671875" xlink:href="#BitstreamVeraSans-Roman-69"/>
      <use x="530.455078125" xlink:href="#BitstreamVeraSans-Roman-66"/>
      <use x="565.66015625" xlink:href="#BitstreamVeraSans-Roman-66"/>
      <use x="600.865234375" xlink:href="#BitstreamVeraSans-Roman-65"/>
      <use x="662.388671875" xlink:href="#BitstreamVeraSans-Roman-72"/>
      <use x="703.470703125" xlink:href="#BitstreamVeraSans-Roman-65"/>
      <use x="764.994140625" xlink:href="#BitstreamVeraSans-Roman-6e"/>
      <use x="828.373046875" xlink:href="#BitstreamVeraSans-Roman-63"/>
      <use x="883.353515625" xlink:href="#BitstreamVeraSans-Roman-65"/>
      <use x="944.876953125" xlink:href="#BitstreamVeraSans-Roman-20"/>
     </g>
    </g>
    <g id="line2d_42">
     <path d="M 361.485 68.75825 
L 381.645 68.75825 
" style="fill:none;stroke:#008000;stroke-linecap:square;"/>
    </g>
    <g id="line2d_43"/>
    <g id="text_17">
     <!-- Backward difference  -->
     <defs>
      <path d="M 19.671875 34.8125 
L 19.671875 8.109375 
L 35.5 8.109375 
Q 43.453125 8.109375 47.28125 11.40625 
Q 51.125 14.703125 51.125 21.484375 
Q 51.125 28.328125 47.28125 31.5625 
Q 43.453125 34.8125 35.5 34.8125 
z
M 19.671875 64.796875 
L 19.671875 42.828125 
L 34.28125 42.828125 
Q 41.5 42.828125 45.03125 45.53125 
Q 48.578125 48.25 48.578125 53.8125 
Q 48.578125 59.328125 45.03125 62.0625 
Q 41.5 64.796875 34.28125 64.796875 
z
M 9.8125 72.90625 
L 35.015625 72.90625 
Q 46.296875 72.90625 52.390625 68.21875 
Q 58.5 63.53125 58.5 54.890625 
Q 58.5 48.1875 55.375 44.234375 
Q 52.25 40.28125 46.1875 39.3125 
Q 53.46875 37.75 57.5 32.78125 
Q 61.53125 27.828125 61.53125 20.40625 
Q 61.53125 10.640625 54.890625 5.3125 
Q 48.25 0 35.984375 0 
L 9.8125 0 
z
" id="BitstreamVeraSans-Roman-42"/>
      <path d="M 9.078125 75.984375 
L 18.109375 75.984375 
L 18.109375 31.109375 
L 44.921875 54.6875 
L 56.390625 54.6875 
L 27.390625 29.109375 
L 57.625 0 
L 45.90625 0 
L 18.109375 26.703125 
L 18.109375 0 
L 9.078125 0 
z
" id="BitstreamVeraSans-Roman-6b"/>
     </defs>
     <g transform="translate(397.48499999999996 73.79825)scale(0.144 -0.144)">
      <use xlink:href="#BitstreamVeraSans-Roman-42"/>
      <use x="68.603515625" xlink:href="#BitstreamVeraSans-Roman-61"/>
      <use x="129.8828125" xlink:href="#BitstreamVeraSans-Roman-63"/>
      <use x="184.86328125" xlink:href="#BitstreamVeraSans-Roman-6b"/>
      <use x="242.7734375" xlink:href="#BitstreamVeraSans-Roman-77"/>
      <use x="324.560546875" xlink:href="#BitstreamVeraSans-Roman-61"/>
      <use x="385.83984375" xlink:href="#BitstreamVeraSans-Roman-72"/>
      <use x="426.9375" xlink:href="#BitstreamVeraSans-Roman-64"/>
      <use x="490.4140625" xlink:href="#BitstreamVeraSans-Roman-20"/>
      <use x="522.201171875" xlink:href="#BitstreamVeraSans-Roman-64"/>
      <use x="585.677734375" xlink:href="#BitstreamVeraSans-Roman-69"/>
      <use x="613.4609375" xlink:href="#BitstreamVeraSans-Roman-66"/>
      <use x="648.666015625" xlink:href="#BitstreamVeraSans-Roman-66"/>
      <use x="683.87109375" xlink:href="#BitstreamVeraSans-Roman-65"/>
      <use x="745.39453125" xlink:href="#BitstreamVeraSans-Roman-72"/>
      <use x="786.4765625" xlink:href="#BitstreamVeraSans-Roman-65"/>
      <use x="848.0" xlink:href="#BitstreamVeraSans-Roman-6e"/>
      <use x="911.37890625" xlink:href="#BitstreamVeraSans-Roman-63"/>
      <use x="966.359375" xlink:href="#BitstreamVeraSans-Roman-65"/>
      <use x="1027.8828125" xlink:href="#BitstreamVeraSans-Roman-20"/>
     </g>
    </g>
    <g id="line2d_44">
     <path d="M 361.485 89.89475 
L 381.645 89.89475 
" style="fill:none;stroke:#ff0000;stroke-linecap:square;"/>
    </g>
    <g id="line2d_45"/>
    <g id="text_18">
     <!-- Central difference  -->
     <defs>
      <path d="M 64.40625 67.28125 
L 64.40625 56.890625 
Q 59.421875 61.53125 53.78125 63.8125 
Q 48.140625 66.109375 41.796875 66.109375 
Q 29.296875 66.109375 22.65625 58.46875 
Q 16.015625 50.828125 16.015625 36.375 
Q 16.015625 21.96875 22.65625 14.328125 
Q 29.296875 6.6875 41.796875 6.6875 
Q 48.140625 6.6875 53.78125 8.984375 
Q 59.421875 11.28125 64.40625 15.921875 
L 64.40625 5.609375 
Q 59.234375 2.09375 53.4375 0.328125 
Q 47.65625 -1.421875 41.21875 -1.421875 
Q 24.65625 -1.421875 15.125 8.703125 
Q 5.609375 18.84375 5.609375 36.375 
Q 5.609375 53.953125 15.125 64.078125 
Q 24.65625 74.21875 41.21875 74.21875 
Q 47.75 74.21875 53.53125 72.484375 
Q 59.328125 70.75 64.40625 67.28125 
" id="BitstreamVeraSans-Roman-43"/>
     </defs>
     <g transform="translate(397.48499999999996 94.93475000000001)scale(0.144 -0.144)">
      <use xlink:href="#BitstreamVeraSans-Roman-43"/>
      <use x="69.82421875" xlink:href="#BitstreamVeraSans-Roman-65"/>
      <use x="131.34765625" xlink:href="#BitstreamVeraSans-Roman-6e"/>
      <use x="194.7265625" xlink:href="#BitstreamVeraSans-Roman-74"/>
      <use x="233.935546875" xlink:href="#BitstreamVeraSans-Roman-72"/>
      <use x="275.048828125" xlink:href="#BitstreamVeraSans-Roman-61"/>
      <use x="336.328125" xlink:href="#BitstreamVeraSans-Roman-6c"/>
      <use x="364.111328125" xlink:href="#BitstreamVeraSans-Roman-20"/>
      <use x="395.8984375" xlink:href="#BitstreamVeraSans-Roman-64"/>
      <use x="459.375" xlink:href="#BitstreamVeraSans-Roman-69"/>
      <use x="487.158203125" xlink:href="#BitstreamVeraSans-Roman-66"/>
      <use x="522.36328125" xlink:href="#BitstreamVeraSans-Roman-66"/>
      <use x="557.568359375" xlink:href="#BitstreamVeraSans-Roman-65"/>
      <use x="619.091796875" xlink:href="#BitstreamVeraSans-Roman-72"/>
      <use x="660.173828125" xlink:href="#BitstreamVeraSans-Roman-65"/>
      <use x="721.697265625" xlink:href="#BitstreamVeraSans-Roman-6e"/>
      <use x="785.076171875" xlink:href="#BitstreamVeraSans-Roman-63"/>
      <use x="840.056640625" xlink:href="#BitstreamVeraSans-Roman-65"/>
      <use x="901.580078125" xlink:href="#BitstreamVeraSans-Roman-20"/>
     </g>
    </g>
   </g>
  </g>
 </g>
 <defs>
  <clipPath id="pb436cda111">
   <rect height="357.88" width="500.12999999999994" x="62.910000000000004" y="28.75999999999999"/>
  </clipPath>
 </defs>
</svg>
