<?xml version="1.0" encoding="utf-8" standalone="no"?>
<!DOCTYPE svg PUBLIC "-//W3C//DTD SVG 1.1//EN"
  "http://www.w3.org/Graphics/SVG/1.1/DTD/svg11.dtd">
<!-- Created with matplotlib (http://matplotlib.org/) -->
<svg height="432pt" version="1.1" viewBox="0 0 576 432" width="576pt" xmlns="http://www.w3.org/2000/svg" xmlns:xlink="http://www.w3.org/1999/xlink">
 <defs>
  <style type="text/css">
*{stroke-linecap:butt;stroke-linejoin:round;stroke-miterlimit:100000;}
  </style>
 </defs>
 <g id="figure_1">
  <g id="patch_1">
   <path d="M 0 432 
L 576 432 
L 576 0 
L 0 0 
z
" style="fill:#ffffff;"/>
  </g>
  <g id="axes_1">
   <g id="patch_2">
    <path d="M 72 388.8 
L 518.4 388.8 
L 518.4 43.2 
L 72 43.2 
z
" style="fill:#ffffff;"/>
   </g>
   <g id="line2d_1">
    <path clip-path="url(#p239f13a14c)" d="M 72 388.799982 
L 76.509091 379.662715 
L 81.018182 370.533623 
L 85.527273 361.422192 
L 90.036364 352.341289 
L 94.545455 343.295994 
L 99.054545 334.295632 
L 103.563636 325.350448 
L 108.072727 316.46937 
L 112.581818 307.661046 
L 117.090909 298.934355 
L 121.6 290.29818 
L 126.109091 281.7612 
L 130.618182 273.332002 
L 135.127273 265.019054 
L 139.636364 256.830757 
L 144.145455 248.77533 
L 148.654545 240.860905 
L 153.163636 233.095435 
L 157.672727 225.486759 
L 162.181818 218.042509 
L 166.690909 210.77021 
L 171.2 203.677161 
L 175.709091 196.770526 
L 180.218182 190.057238 
L 184.727273 183.544084 
L 189.236364 177.237584 
L 193.745455 171.144123 
L 198.254545 165.269813 
L 202.763636 159.620598 
L 207.272727 154.202124 
L 211.781818 149.019889 
L 216.290909 144.079077 
L 220.8 139.384686 
L 225.309091 134.941429 
L 229.818182 130.753803 
L 234.327273 126.825988 
L 238.836364 123.161961 
L 243.345455 119.765415 
L 247.854545 116.639763 
L 252.363636 113.788154 
L 256.872727 111.213458 
L 261.381818 108.918268 
L 265.890909 106.904895 
L 270.4 105.175367 
L 274.909091 103.731424 
L 279.418182 102.574522 
L 283.927273 101.705824 
L 288.436364 101.126206 
L 292.945455 100.836251 
L 297.454545 100.836251 
L 301.963636 101.126206 
L 306.472727 101.705824 
L 310.981818 102.574522 
L 315.490909 103.731425 
L 320 105.175367 
L 324.509091 106.904895 
L 329.018182 108.918268 
L 333.527273 111.213458 
L 338.036364 113.788153 
L 342.545455 116.639762 
L 347.054545 119.765424 
L 351.563636 123.161977 
L 356.072727 126.825984 
L 360.581818 130.753798 
L 365.090909 134.941431 
L 369.6 139.384686 
L 374.109091 144.079079 
L 378.618182 149.01989 
L 383.127273 154.202123 
L 387.636364 159.62059 
L 392.145455 165.269819 
L 396.654545 171.144129 
L 401.163636 177.237583 
L 405.672727 183.544079 
L 410.181818 190.05724 
L 414.690909 196.770525 
L 419.2 203.677165 
L 423.709091 210.770213 
L 428.218182 218.042508 
L 432.727273 225.486753 
L 437.236364 233.095438 
L 441.745455 240.860909 
L 446.254545 248.77533 
L 450.763636 256.830757 
L 455.272727 265.019053 
L 459.781818 273.331996 
L 464.290909 281.761201 
L 468.8 290.298191 
L 473.309091 298.934354 
L 477.818182 307.661012 
L 482.327273 316.469365 
L 486.836364 325.350553 
L 491.345455 334.295626 
L 495.854545 343.295584 
L 500.363636 352.341356 
L 504.872727 361.423843 
L 509.381818 370.533893 
L 513.890909 379.662337 
L 518.4 388.799982 
" style="fill:none;stroke:#0000ff;stroke-linecap:square;"/>
   </g>
   <g id="line2d_2">
    <defs>
     <path d="M 0 1.5 
C 0.397805 1.5 0.77937 1.341951 1.06066 1.06066 
C 1.341951 0.77937 1.5 0.397805 1.5 0 
C 1.5 -0.397805 1.341951 -0.77937 1.06066 -1.06066 
C 0.77937 -1.341951 0.397805 -1.5 0 -1.5 
C -0.397805 -1.5 -0.77937 -1.341951 -1.06066 -1.06066 
C -1.341951 -0.77937 -1.5 -0.397805 -1.5 0 
C -1.5 0.397805 -1.341951 0.77937 -1.06066 1.06066 
C -0.77937 1.341951 -0.397805 1.5 0 1.5 
z
" id="m758cf3c8d4" style="stroke:#008000;stroke-width:0.5;"/>
    </defs>
    <g clip-path="url(#p239f13a14c)">
     <use style="fill:#008000;stroke:#008000;stroke-width:0.5;" x="72.0" xlink:href="#m758cf3c8d4" y="388.7999815351289"/>
     <use style="fill:#008000;stroke:#008000;stroke-width:0.5;" x="72.13690977512188" xlink:href="#m758cf3c8d4" y="388.5224882063497"/>
     <use style="fill:#008000;stroke:#008000;stroke-width:0.5;" x="72.27381955024377" xlink:href="#m758cf3c8d4" y="388.2449951352036"/>
     <use style="fill:#008000;stroke:#008000;stroke-width:0.5;" x="72.54763910048756" xlink:href="#m758cf3c8d4" y="387.6900107962731"/>
     <use style="fill:#008000;stroke:#008000;stroke-width:0.5;" x="73.09527820097512" xlink:href="#m758cf3c8d4" y="386.58005654505564"/>
     <use style="fill:#008000;stroke:#008000;stroke-width:0.5;" x="74.19055640195023" xlink:href="#m758cf3c8d4" y="384.3602634535224"/>
     <use style="fill:#008000;stroke:#008000;stroke-width:0.5;" x="76.38111280390046" xlink:href="#m758cf3c8d4" y="379.9216005088277"/>
     <use style="fill:#008000;stroke:#008000;stroke-width:0.5;" x="80.76222560780094" xlink:href="#m758cf3c8d4" y="371.0516590557609"/>
     <use style="fill:#008000;stroke:#008000;stroke-width:0.5;" x="90.26148223811127" xlink:href="#m758cf3c8d4" y="351.8887953142288"/>
     <use style="fill:#008000;stroke:#008000;stroke-width:0.5;" x="99.13123922290933" xlink:href="#m758cf3c8d4" y="334.14299721347277"/>
     <use style="fill:#008000;stroke:#008000;stroke-width:0.5;" x="107.82700678486898" xlink:href="#m758cf3c8d4" y="316.9515445658673"/>
     <use style="fill:#008000;stroke:#008000;stroke-width:0.5;" x="117.25980536933803" xlink:href="#m758cf3c8d4" y="298.6091843937425"/>
     <use style="fill:#008000;stroke:#008000;stroke-width:0.5;" x="126.0631043082948" xlink:href="#m758cf3c8d4" y="281.84773596216326"/>
     <use style="fill:#008000;stroke:#008000;stroke-width:0.5;" x="135.60343426976092" xlink:href="#m758cf3c8d4" y="264.14833529075844"/>
     <use style="fill:#008000;stroke:#008000;stroke-width:0.5;" x="144.96977480838868" xlink:href="#m758cf3c8d4" y="247.317700734341"/>
     <use style="fill:#008000;stroke:#008000;stroke-width:0.5;" x="153.70661570150415" xlink:href="#m758cf3c8d4" y="232.17074993379637"/>
     <use style="fill:#008000;stroke:#008000;stroke-width:0.5;" x="163.18048761712902" xlink:href="#m758cf3c8d4" y="216.41676105028492"/>
     <use style="fill:#008000;stroke:#008000;stroke-width:0.5;" x="172.02485988724158" xlink:href="#m758cf3c8d4" y="202.3995725189399"/>
     <use style="fill:#008000;stroke:#008000;stroke-width:0.5;" x="180.69524273451577" xlink:href="#m758cf3c8d4" y="189.3585639987384"/>
     <use style="fill:#008000;stroke:#008000;stroke-width:0.5;" x="190.1026566042993" xlink:href="#m758cf3c8d4" y="176.0501726491424"/>
     <use style="fill:#008000;stroke:#008000;stroke-width:0.5;" x="198.88057082857063" xlink:href="#m758cf3c8d4" y="164.47190884785675"/>
     <use style="fill:#008000;stroke:#008000;stroke-width:0.5;" x="208.39551607535128" xlink:href="#m758cf3c8d4" y="152.88942000372327"/>
     <use style="fill:#008000;stroke:#008000;stroke-width:0.5;" x="217.73647189929358" xlink:href="#m758cf3c8d4" y="142.54703702599062"/>
     <use style="fill:#008000;stroke:#008000;stroke-width:0.5;" x="226.44792807772356" xlink:href="#m758cf3c8d4" y="133.85948157963247"/>
     <use style="fill:#008000;stroke:#008000;stroke-width:0.5;" x="235.89641527866294" xlink:href="#m758cf3c8d4" y="125.52080135183057"/>
     <use style="fill:#008000;stroke:#008000;stroke-width:0.5;" x="236.03421195921652" xlink:href="#m758cf3c8d4" y="125.40771602579008"/>
     <use style="fill:#008000;stroke:#008000;stroke-width:0.5;" x="236.17200863977007" xlink:href="#m758cf3c8d4" y="125.29487840309034"/>
     <use style="fill:#008000;stroke:#008000;stroke-width:0.5;" x="236.44760200087717" xlink:href="#m758cf3c8d4" y="125.06994669194572"/>
     <use style="fill:#008000;stroke:#008000;stroke-width:0.5;" x="236.99878872309137" xlink:href="#m758cf3c8d4" y="124.62306036324938"/>
     <use style="fill:#008000;stroke:#008000;stroke-width:0.5;" x="238.10116216751973" xlink:href="#m758cf3c8d4" y="123.74121953670281"/>
     <use style="fill:#008000;stroke:#008000;stroke-width:0.5;" x="240.3059090563765" xlink:href="#m758cf3c8d4" y="122.02544971287296"/>
     <use style="fill:#008000;stroke:#008000;stroke-width:0.5;" x="244.71540283409004" xlink:href="#m758cf3c8d4" y="118.78698283992038"/>
     <use style="fill:#008000;stroke:#008000;stroke-width:0.5;" x="244.8647156243703" xlink:href="#m758cf3c8d4" y="118.68185723429906"/>
     <use style="fill:#008000;stroke:#008000;stroke-width:0.5;" x="245.01402841465057" xlink:href="#m758cf3c8d4" y="118.57702989146765"/>
     <use style="fill:#008000;stroke:#008000;stroke-width:0.5;" x="245.31265399521106" xlink:href="#m758cf3c8d4" y="118.36827045684416"/>
     <use style="fill:#008000;stroke:#008000;stroke-width:0.5;" x="245.9099051563321" xlink:href="#m758cf3c8d4" y="117.95433581198223"/>
     <use style="fill:#008000;stroke:#008000;stroke-width:0.5;" x="247.10440747857413" xlink:href="#m758cf3c8d4" y="117.14082890442451"/>
     <use style="fill:#008000;stroke:#008000;stroke-width:0.5;" x="249.49341212305828" xlink:href="#m758cf3c8d4" y="115.57146404940612"/>
     <use style="fill:#008000;stroke:#008000;stroke-width:0.5;" x="254.27142141202654" xlink:href="#m758cf3c8d4" y="112.66485418023574"/>
     <use style="fill:#008000;stroke:#008000;stroke-width:0.5;" x="254.41801561757495" xlink:href="#m758cf3c8d4" y="112.58059671503547"/>
     <use style="fill:#008000;stroke:#008000;stroke-width:0.5;" x="254.56460982312336" xlink:href="#m758cf3c8d4" y="112.49663324425732"/>
     <use style="fill:#008000;stroke:#008000;stroke-width:0.5;" x="254.85779823422016" xlink:href="#m758cf3c8d4" y="112.32958864312081"/>
     <use style="fill:#008000;stroke:#008000;stroke-width:0.5;" x="255.44417505641377" xlink:href="#m758cf3c8d4" y="111.99903128506716"/>
     <use style="fill:#008000;stroke:#008000;stroke-width:0.5;" x="256.61692870080105" xlink:href="#m758cf3c8d4" y="111.35206354290085"/>
     <use style="fill:#008000;stroke:#008000;stroke-width:0.5;" x="258.96243598957557" xlink:href="#m758cf3c8d4" y="110.11486851102099"/>
     <use style="fill:#008000;stroke:#008000;stroke-width:0.5;" x="259.109030195124" xlink:href="#m758cf3c8d4" y="110.04006163730469"/>
     <use style="fill:#008000;stroke:#008000;stroke-width:0.5;" x="259.2556244006724" xlink:href="#m758cf3c8d4" y="109.96555146203178"/>
     <use style="fill:#008000;stroke:#008000;stroke-width:0.5;" x="259.5488128117692" xlink:href="#m758cf3c8d4" y="109.81742152372017"/>
     <use style="fill:#008000;stroke:#008000;stroke-width:0.5;" x="260.13518963396285" xlink:href="#m758cf3c8d4" y="109.52472549666864"/>
     <use style="fill:#008000;stroke:#008000;stroke-width:0.5;" x="261.3079432783501" xlink:href="#m758cf3c8d4" y="108.95360618030028"/>
     <use style="fill:#008000;stroke:#008000;stroke-width:0.5;" x="263.6534505671246" xlink:href="#m758cf3c8d4" y="107.86859295723329"/>
     <use style="fill:#008000;stroke:#008000;stroke-width:0.5;" x="263.7902088407119" xlink:href="#m758cf3c8d4" y="107.80768853586362"/>
     <use style="fill:#008000;stroke:#008000;stroke-width:0.5;" x="263.9269671142992" xlink:href="#m758cf3c8d4" y="107.74704440178338"/>
     <use style="fill:#008000;stroke:#008000;stroke-width:0.5;" x="264.20048366147375" xlink:href="#m758cf3c8d4" y="107.62653721995234"/>
     <use style="fill:#008000;stroke:#008000;stroke-width:0.5;" x="264.74751675582286" xlink:href="#m758cf3c8d4" y="107.38864875932714"/>
     <use style="fill:#008000;stroke:#008000;stroke-width:0.5;" x="265.84158294452106" xlink:href="#m758cf3c8d4" y="106.925387709224"/>
     <use style="fill:#008000;stroke:#008000;stroke-width:0.5;" x="268.02971532191754" xlink:href="#m758cf3c8d4" y="106.04902391734812"/>
     <use style="fill:#008000;stroke:#008000;stroke-width:0.5;" x="268.1664735955048" xlink:href="#m758cf3c8d4" y="105.99647535434137"/>
     <use style="fill:#008000;stroke:#008000;stroke-width:0.5;" x="268.3032318690921" xlink:href="#m758cf3c8d4" y="105.94418875637736"/>
     <use style="fill:#008000;stroke:#008000;stroke-width:0.5;" x="268.57674841626664" xlink:href="#m758cf3c8d4" y="105.8404016490701"/>
     <use style="fill:#008000;stroke:#008000;stroke-width:0.5;" x="269.12378151061574" xlink:href="#m758cf3c8d4" y="105.63597312979334"/>
     <use style="fill:#008000;stroke:#008000;stroke-width:0.5;" x="270.21784769931395" xlink:href="#m758cf3c8d4" y="105.23970939539736"/>
     <use style="fill:#008000;stroke:#008000;stroke-width:0.5;" x="272.4059800767104" xlink:href="#m758cf3c8d4" y="104.49763605764404"/>
     <use style="fill:#008000;stroke:#008000;stroke-width:0.5;" x="272.5542544600244" xlink:href="#m758cf3c8d4" y="104.44978804473787"/>
     <use style="fill:#008000;stroke:#008000;stroke-width:0.5;" x="272.7025288433384" xlink:href="#m758cf3c8d4" y="104.40224965760757"/>
     <use style="fill:#008000;stroke:#008000;stroke-width:0.5;" x="272.9990776099664" xlink:href="#m758cf3c8d4" y="104.30810196739343"/>
     <use style="fill:#008000;stroke:#008000;stroke-width:0.5;" x="273.59217514322233" xlink:href="#m758cf3c8d4" y="104.12352435129665"/>
     <use style="fill:#008000;stroke:#008000;stroke-width:0.5;" x="274.77837020973425" xlink:href="#m758cf3c8d4" y="103.76925131814686"/>
     <use style="fill:#008000;stroke:#008000;stroke-width:0.5;" x="274.9266445930482" xlink:href="#m758cf3c8d4" y="103.72636334040219"/>
     <use style="fill:#008000;stroke:#008000;stroke-width:0.5;" x="275.0749189763622" xlink:href="#m758cf3c8d4" y="103.68378577616247"/>
     <use style="fill:#008000;stroke:#008000;stroke-width:0.5;" x="275.37146774299015" xlink:href="#m758cf3c8d4" y="103.59956207330877"/>
     <use style="fill:#008000;stroke:#008000;stroke-width:0.5;" x="275.9645652762461" xlink:href="#m758cf3c8d4" y="103.43484164694681"/>
     <use style="fill:#008000;stroke:#008000;stroke-width:0.5;" x="277.150760342758" xlink:href="#m758cf3c8d4" y="103.12031864220084"/>
     <use style="fill:#008000;stroke:#008000;stroke-width:0.5;" x="277.299034726072" xlink:href="#m758cf3c8d4" y="103.08240265460266"/>
     <use style="fill:#008000;stroke:#008000;stroke-width:0.5;" x="277.447309109386" xlink:href="#m758cf3c8d4" y="103.04479778171107"/>
     <use style="fill:#008000;stroke:#008000;stroke-width:0.5;" x="277.743857876014" xlink:href="#m758cf3c8d4" y="102.97052154349889"/>
     <use style="fill:#008000;stroke:#008000;stroke-width:0.5;" x="278.33695540926993" xlink:href="#m758cf3c8d4" y="102.82570422254166"/>
     <use style="fill:#008000;stroke:#008000;stroke-width:0.5;" x="279.5231504757818" xlink:href="#m758cf3c8d4" y="102.55101891920278"/>
     <use style="fill:#008000;stroke:#008000;stroke-width:0.5;" x="281.8955406088056" xlink:href="#m758cf3c8d4" y="102.06151084093587"/>
     <use style="fill:#008000;stroke:#008000;stroke-width:0.5;" x="282.0339790601585" xlink:href="#m758cf3c8d4" y="102.03541302267446"/>
     <use style="fill:#008000;stroke:#008000;stroke-width:0.5;" x="282.17241751151136" xlink:href="#m758cf3c8d4" y="102.00958740577077"/>
     <use style="fill:#008000;stroke:#008000;stroke-width:0.5;" x="282.44929441421704" xlink:href="#m758cf3c8d4" y="101.95875287383447"/>
     <use style="fill:#008000;stroke:#008000;stroke-width:0.5;" x="283.0030482196285" xlink:href="#m758cf3c8d4" y="101.86035128755948"/>
     <use style="fill:#008000;stroke:#008000;stroke-width:0.5;" x="284.11055583045135" xlink:href="#m758cf3c8d4" y="101.67662316917195"/>
     <use style="fill:#008000;stroke:#008000;stroke-width:0.5;" x="284.2489942818042" xlink:href="#m758cf3c8d4" y="101.65488336957738"/>
     <use style="fill:#008000;stroke:#008000;stroke-width:0.5;" x="284.387432733157" xlink:href="#m758cf3c8d4" y="101.63341613254512"/>
     <use style="fill:#008000;stroke:#008000;stroke-width:0.5;" x="284.66430963586276" xlink:href="#m758cf3c8d4" y="101.59129942741698"/>
     <use style="fill:#008000;stroke:#008000;stroke-width:0.5;" x="285.2180634412742" xlink:href="#m758cf3c8d4" y="101.51033764716124"/>
     <use style="fill:#008000;stroke:#008000;stroke-width:0.5;" x="286.3255710520971" xlink:href="#m758cf3c8d4" y="101.36150482328672"/>
     <use style="fill:#008000;stroke:#008000;stroke-width:0.5;" x="286.4640095034499" xlink:href="#m758cf3c8d4" y="101.34412832500499"/>
     <use style="fill:#008000;stroke:#008000;stroke-width:0.5;" x="286.60244795480276" xlink:href="#m758cf3c8d4" y="101.32702468425909"/>
     <use style="fill:#008000;stroke:#008000;stroke-width:0.5;" x="286.8793248575085" xlink:href="#m758cf3c8d4" y="101.29363604005573"/>
     <use style="fill:#008000;stroke:#008000;stroke-width:0.5;" x="287.4330786629199" xlink:href="#m758cf3c8d4" y="101.23013373906528"/>
     <use style="fill:#008000;stroke:#008000;stroke-width:0.5;" x="287.57151711427275" xlink:href="#m758cf3c8d4" y="101.21494054114501"/>
     <use style="fill:#008000;stroke:#008000;stroke-width:0.5;" x="287.70995556562565" xlink:href="#m758cf3c8d4" y="101.20002032338756"/>
     <use style="fill:#008000;stroke:#008000;stroke-width:0.5;" x="287.9868324683314" xlink:href="#m758cf3c8d4" y="101.17099888475201"/>
     <use style="fill:#008000;stroke:#008000;stroke-width:0.5;" x="288.5405862737428" xlink:href="#m758cf3c8d4" y="101.11623237522224"/>
     <use style="fill:#008000;stroke:#008000;stroke-width:0.5;" x="288.67902472509564" xlink:href="#m758cf3c8d4" y="101.1032234006423"/>
     <use style="fill:#008000;stroke:#008000;stroke-width:0.5;" x="288.81746317644854" xlink:href="#m758cf3c8d4" y="101.09048751226887"/>
     <use style="fill:#008000;stroke:#008000;stroke-width:0.5;" x="289.0943400791542" xlink:href="#m758cf3c8d4" y="101.0658350422384"/>
     <use style="fill:#008000;stroke:#008000;stroke-width:0.5;" x="289.6480938845657" xlink:href="#m758cf3c8d4" y="101.01980765120642"/>
     <use style="fill:#008000;stroke:#008000;stroke-width:0.5;" x="289.78653233591854" xlink:href="#m758cf3c8d4" y="101.0089836902553"/>
     <use style="fill:#008000;stroke:#008000;stroke-width:0.5;" x="289.9249707872714" xlink:href="#m758cf3c8d4" y="100.99843290496446"/>
     <use style="fill:#008000;stroke:#008000;stroke-width:0.5;" x="290.20184768997706" xlink:href="#m758cf3c8d4" y="100.97815090116396"/>
     <use style="fill:#008000;stroke:#008000;stroke-width:0.5;" x="290.75560149538853" xlink:href="#m758cf3c8d4" y="100.94086542476987"/>
     <use style="fill:#008000;stroke:#008000;stroke-width:0.5;" x="290.89132136200953" xlink:href="#m758cf3c8d4" y="100.93239413914522"/>
     <use style="fill:#008000;stroke:#008000;stroke-width:0.5;" x="291.02704122863054" xlink:href="#m758cf3c8d4" y="100.92418547542673"/>
     <use style="fill:#008000;stroke:#008000;stroke-width:0.5;" x="291.29848096187254" xlink:href="#m758cf3c8d4" y="100.9085560434239"/>
     <use style="fill:#008000;stroke:#008000;stroke-width:0.5;" x="291.43420082849354" xlink:href="#m758cf3c8d4" y="100.90113528939827"/>
     <use style="fill:#008000;stroke:#008000;stroke-width:0.5;" x="291.56992069511455" xlink:href="#m758cf3c8d4" y="100.89397718579634"/>
     <use style="fill:#008000;stroke:#008000;stroke-width:0.5;" x="291.8413604283566" xlink:href="#m758cf3c8d4" y="100.88044895574525"/>
     <use style="fill:#008000;stroke:#008000;stroke-width:0.5;" x="291.9770802949776" xlink:href="#m758cf3c8d4" y="100.87407884163795"/>
     <use style="fill:#008000;stroke:#008000;stroke-width:0.5;" x="292.1128001615986" xlink:href="#m758cf3c8d4" y="100.8679714026379"/>
     <use style="fill:#008000;stroke:#008000;stroke-width:0.5;" x="292.3842398948406" xlink:href="#m758cf3c8d4" y="100.85654457200746"/>
     <use style="fill:#008000;stroke:#008000;stroke-width:0.5;" x="292.5199597614616" xlink:href="#m758cf3c8d4" y="100.8512251908017"/>
     <use style="fill:#008000;stroke:#008000;stroke-width:0.5;" x="292.6556796280826" xlink:href="#m758cf3c8d4" y="100.84616850555268"/>
     <use style="fill:#008000;stroke:#008000;stroke-width:0.5;" x="292.9271193613247" xlink:href="#m758cf3c8d4" y="100.83684324113797"/>
     <use style="fill:#008000;stroke:#008000;stroke-width:0.5;" x="293.0628392279457" xlink:href="#m758cf3c8d4" y="100.83257467047972"/>
     <use style="fill:#008000;stroke:#008000;stroke-width:0.5;" x="293.1985590945667" xlink:href="#m758cf3c8d4" y="100.8285688127931"/>
     <use style="fill:#008000;stroke:#008000;stroke-width:0.5;" x="293.3342789611877" xlink:href="#m758cf3c8d4" y="100.82482567173264"/>
     <use style="fill:#008000;stroke:#008000;stroke-width:0.5;" x="293.4699988278087" xlink:href="#m758cf3c8d4" y="100.82134525071318"/>
     <use style="fill:#008000;stroke:#008000;stroke-width:0.5;" x="293.6057186944297" xlink:href="#m758cf3c8d4" y="100.81812755290994"/>
     <use style="fill:#008000;stroke:#008000;stroke-width:0.5;" x="293.7414385610507" xlink:href="#m758cf3c8d4" y="100.81517258125844"/>
     <use style="fill:#008000;stroke:#008000;stroke-width:0.5;" x="293.8771584276717" xlink:href="#m758cf3c8d4" y="100.81248033845445"/>
     <use style="fill:#008000;stroke:#008000;stroke-width:0.5;" x="294.0128782942927" xlink:href="#m758cf3c8d4" y="100.81005082695415"/>
     <use style="fill:#008000;stroke:#008000;stroke-width:0.5;" x="294.14859816091376" xlink:href="#m758cf3c8d4" y="100.80788404897402"/>
     <use style="fill:#008000;stroke:#008000;stroke-width:0.5;" x="294.28431802753477" xlink:href="#m758cf3c8d4" y="100.80598000649071"/>
     <use style="fill:#008000;stroke:#008000;stroke-width:0.5;" x="294.42003789415577" xlink:href="#m758cf3c8d4" y="100.8043387012414"/>
     <use style="fill:#008000;stroke:#008000;stroke-width:0.5;" x="294.55575776077677" xlink:href="#m758cf3c8d4" y="100.80296013472335"/>
     <use style="fill:#008000;stroke:#008000;stroke-width:0.5;" x="294.6914776273978" xlink:href="#m758cf3c8d4" y="100.80184430819432"/>
     <use style="fill:#008000;stroke:#008000;stroke-width:0.5;" x="294.8271974940188" xlink:href="#m758cf3c8d4" y="100.80099122267218"/>
     <use style="fill:#008000;stroke:#008000;stroke-width:0.5;" x="294.9629173606398" xlink:href="#m758cf3c8d4" y="100.80040087893528"/>
     <use style="fill:#008000;stroke:#008000;stroke-width:0.5;" x="295.0986372272608" xlink:href="#m758cf3c8d4" y="100.80007327752215"/>
     <use style="fill:#008000;stroke:#008000;stroke-width:0.5;" x="295.23435709388184" xlink:href="#m758cf3c8d4" y="100.80000841873172"/>
     <use style="fill:#008000;stroke:#008000;stroke-width:0.5;" x="295.37007696050284" xlink:href="#m758cf3c8d4" y="100.80020630262307"/>
     <use style="fill:#008000;stroke:#008000;stroke-width:0.5;" x="295.50579682712385" xlink:href="#m758cf3c8d4" y="100.8006669290157"/>
     <use style="fill:#008000;stroke:#008000;stroke-width:0.5;" x="295.64151669374485" xlink:href="#m758cf3c8d4" y="100.80139029748943"/>
     <use style="fill:#008000;stroke:#008000;stroke-width:0.5;" x="295.77723656036585" xlink:href="#m758cf3c8d4" y="100.80237640738433"/>
     <use style="fill:#008000;stroke:#008000;stroke-width:0.5;" x="295.91295642698685" xlink:href="#m758cf3c8d4" y="100.80362525780069"/>
     <use style="fill:#008000;stroke:#008000;stroke-width:0.5;" x="296.0486762936078" xlink:href="#m758cf3c8d4" y="100.80513684759924"/>
     <use style="fill:#008000;stroke:#008000;stroke-width:0.5;" x="296.18439616022886" xlink:href="#m758cf3c8d4" y="100.80691117540096"/>
     <use style="fill:#008000;stroke:#008000;stroke-width:0.5;" x="296.3201160268499" xlink:href="#m758cf3c8d4" y="100.80894823958711"/>
     <use style="fill:#008000;stroke:#008000;stroke-width:0.5;" x="296.45583589347086" xlink:href="#m758cf3c8d4" y="100.81124803829928"/>
     <use style="fill:#008000;stroke:#008000;stroke-width:0.5;" x="296.59155576009186" xlink:href="#m758cf3c8d4" y="100.81381056943934"/>
     <use style="fill:#008000;stroke:#008000;stroke-width:0.5;" x="296.72727562671287" xlink:href="#m758cf3c8d4" y="100.81663583066955"/>
     <use style="fill:#008000;stroke:#008000;stroke-width:0.5;" x="296.86299549333387" xlink:href="#m758cf3c8d4" y="100.81972381941235"/>
     <use style="fill:#008000;stroke:#008000;stroke-width:0.5;" x="296.9987153599549" xlink:href="#m758cf3c8d4" y="100.8230745328506"/>
     <use style="fill:#008000;stroke:#008000;stroke-width:0.5;" x="297.27015509319693" xlink:href="#m758cf3c8d4" y="100.83056412134633"/>
     <use style="fill:#008000;stroke:#008000;stroke-width:0.5;" x="297.40587495981794" xlink:href="#m758cf3c8d4" y="100.83470298957106"/>
     <use style="fill:#008000;stroke:#008000;stroke-width:0.5;" x="297.54159482643894" xlink:href="#m758cf3c8d4" y="100.83910456882569"/>
     <use style="fill:#008000;stroke:#008000;stroke-width:0.5;" x="297.81303455968094" xlink:href="#m758cf3c8d4" y="100.84869584412289"/>
     <use style="fill:#008000;stroke:#008000;stroke-width:0.5;" x="297.94875442630195" xlink:href="#m758cf3c8d4" y="100.8538855314153"/>
     <use style="fill:#008000;stroke:#008000;stroke-width:0.5;" x="298.08447429292295" xlink:href="#m758cf3c8d4" y="100.85933791223736"/>
     <use style="fill:#008000;stroke:#008000;stroke-width:0.5;" x="298.355914026165" xlink:href="#m758cf3c8d4" y="100.87103073433407"/>
     <use style="fill:#008000;stroke:#008000;stroke-width:0.5;" x="298.491633892786" xlink:href="#m758cf3c8d4" y="100.87727116494135"/>
     <use style="fill:#008000;stroke:#008000;stroke-width:0.5;" x="298.627353759407" xlink:href="#m758cf3c8d4" y="100.88377426774356"/>
     <use style="fill:#008000;stroke:#008000;stroke-width:0.5;" x="298.898793492649" xlink:href="#m758cf3c8d4" y="100.89756846596201"/>
     <use style="fill:#008000;stroke:#008000;stroke-width:0.5;" x="299.44167295913303" xlink:href="#m758cf3c8d4" y="100.92830865164072"/>
     <use style="fill:#008000;stroke:#008000;stroke-width:0.5;" x="299.58890893548073" xlink:href="#m758cf3c8d4" y="100.93737017196665"/>
     <use style="fill:#008000;stroke:#008000;stroke-width:0.5;" x="299.7361449118285" xlink:href="#m758cf3c8d4" y="100.9467407677133"/>
     <use style="fill:#008000;stroke:#008000;stroke-width:0.5;" x="300.0306168645239" xlink:href="#m758cf3c8d4" y="100.96640914489225"/>
     <use style="fill:#008000;stroke:#008000;stroke-width:0.5;" x="300.61956076991476" xlink:href="#m758cf3c8d4" y="101.00945433937629"/>
     <use style="fill:#008000;stroke:#008000;stroke-width:0.5;" x="300.7667967462625" xlink:href="#m758cf3c8d4" y="101.020988162774"/>
     <use style="fill:#008000;stroke:#008000;stroke-width:0.5;" x="300.9140327226102" xlink:href="#m758cf3c8d4" y="101.03283097181252"/>
     <use style="fill:#008000;stroke:#008000;stroke-width:0.5;" x="301.2085046753057" xlink:href="#m758cf3c8d4" y="101.0574434956182"/>
     <use style="fill:#008000;stroke:#008000;stroke-width:0.5;" x="301.79744858069654" xlink:href="#m758cf3c8d4" y="101.11037578921102"/>
     <use style="fill:#008000;stroke:#008000;stroke-width:0.5;" x="301.94468455704424" xlink:href="#m758cf3c8d4" y="101.1243811231244"/>
     <use style="fill:#008000;stroke:#008000;stroke-width:0.5;" x="302.09192053339194" xlink:href="#m758cf3c8d4" y="101.13869533166651"/>
     <use style="fill:#008000;stroke:#008000;stroke-width:0.5;" x="302.3863924860874" xlink:href="#m758cf3c8d4" y="101.16825031082935"/>
     <use style="fill:#008000;stroke:#008000;stroke-width:0.5;" x="302.97533639147827" xlink:href="#m758cf3c8d4" y="101.23106606624516"/>
     <use style="fill:#008000;stroke:#008000;stroke-width:0.5;" x="304.15322420226" xlink:href="#m758cf3c8d4" y="101.37151687714784"/>
     <use style="fill:#008000;stroke:#008000;stroke-width:0.5;" x="304.3004601786077" xlink:href="#m758cf3c8d4" y="101.390462175163"/>
     <use style="fill:#008000;stroke:#008000;stroke-width:0.5;" x="304.44769615495545" xlink:href="#m758cf3c8d4" y="101.40971606211818"/>
     <use style="fill:#008000;stroke:#008000;stroke-width:0.5;" x="304.74216810765085" xlink:href="#m758cf3c8d4" y="101.44914951982635"/>
     <use style="fill:#008000;stroke:#008000;stroke-width:0.5;" x="305.3311120130417" xlink:href="#m758cf3c8d4" y="101.53171857072708"/>
     <use style="fill:#008000;stroke:#008000;stroke-width:0.5;" x="306.5089998238235" xlink:href="#m758cf3c8d4" y="101.7116601385928"/>
     <use style="fill:#008000;stroke:#008000;stroke-width:0.5;" x="306.6562358001712" xlink:href="#m758cf3c8d4" y="101.73554019343275"/>
     <use style="fill:#008000;stroke:#008000;stroke-width:0.5;" x="306.8034717765189" xlink:href="#m758cf3c8d4" y="101.75972846670567"/>
     <use style="fill:#008000;stroke:#008000;stroke-width:0.5;" x="307.09794372921436" xlink:href="#m758cf3c8d4" y="101.80902956433661"/>
     <use style="fill:#008000;stroke:#008000;stroke-width:0.5;" x="307.6868876346052" xlink:href="#m758cf3c8d4" y="101.91132921591337"/>
     <use style="fill:#008000;stroke:#008000;stroke-width:0.5;" x="308.86477544538695" xlink:href="#m758cf3c8d4" y="102.13071208226529"/>
     <use style="fill:#008000;stroke:#008000;stroke-width:0.5;" x="309.0021754897735" xlink:href="#m758cf3c8d4" y="102.15758623455048"/>
     <use style="fill:#008000;stroke:#008000;stroke-width:0.5;" x="309.1395755341601" xlink:href="#m758cf3c8d4" y="102.18472840578639"/>
     <use style="fill:#008000;stroke:#008000;stroke-width:0.5;" x="309.4143756229333" xlink:href="#m758cf3c8d4" y="102.23981670334479"/>
     <use style="fill:#008000;stroke:#008000;stroke-width:0.5;" x="309.96397580047966" xlink:href="#m758cf3c8d4" y="102.35320839241875"/>
     <use style="fill:#008000;stroke:#008000;stroke-width:0.5;" x="311.06317615557236" xlink:href="#m758cf3c8d4" y="102.59284612487838"/>
     <use style="fill:#008000;stroke:#008000;stroke-width:0.5;" x="313.2615768657578" xlink:href="#m758cf3c8d4" y="103.12348747062362"/>
     <use style="fill:#008000;stroke:#008000;stroke-width:0.5;" x="313.3989769101443" xlink:href="#m758cf3c8d4" y="103.15892439951146"/>
     <use style="fill:#008000;stroke:#008000;stroke-width:0.5;" x="313.5363769545309" xlink:href="#m758cf3c8d4" y="103.19462841106984"/>
     <use style="fill:#008000;stroke:#008000;stroke-width:0.5;" x="313.8111770433041" xlink:href="#m758cf3c8d4" y="103.26683754841139"/>
     <use style="fill:#008000;stroke:#008000;stroke-width:0.5;" x="314.3607772208505" xlink:href="#m758cf3c8d4" y="103.41445932950433"/>
     <use style="fill:#008000;stroke:#008000;stroke-width:0.5;" x="315.4599775759432" xlink:href="#m758cf3c8d4" y="103.72250910378163"/>
     <use style="fill:#008000;stroke:#008000;stroke-width:0.5;" x="317.65837828612854" xlink:href="#m758cf3c8d4" y="104.38976764094627"/>
     <use style="fill:#008000;stroke:#008000;stroke-width:0.5;" x="317.8072944402419" xlink:href="#m758cf3c8d4" y="104.43743046431527"/>
     <use style="fill:#008000;stroke:#008000;stroke-width:0.5;" x="317.9562105943551" xlink:href="#m758cf3c8d4" y="104.48540561311782"/>
     <use style="fill:#008000;stroke:#008000;stroke-width:0.5;" x="318.2540429025817" xlink:href="#m758cf3c8d4" y="104.58229267590957"/>
     <use style="fill:#008000;stroke:#008000;stroke-width:0.5;" x="318.84970751903495" xlink:href="#m758cf3c8d4" y="104.77981236523672"/>
     <use style="fill:#008000;stroke:#008000;stroke-width:0.5;" x="320.0410367519413" xlink:href="#m758cf3c8d4" y="105.18982173494848"/>
     <use style="fill:#008000;stroke:#008000;stroke-width:0.5;" x="322.4236952177541" xlink:href="#m758cf3c8d4" y="106.06961772604858"/>
     <use style="fill:#008000;stroke:#008000;stroke-width:0.5;" x="322.57261137186737" xlink:href="#m758cf3c8d4" y="106.1272471286542"/>
     <use style="fill:#008000;stroke:#008000;stroke-width:0.5;" x="322.72152752598066" xlink:href="#m758cf3c8d4" y="106.18518700070821"/>
     <use style="fill:#008000;stroke:#008000;stroke-width:0.5;" x="323.0193598342073" xlink:href="#m758cf3c8d4" y="106.30199789827087"/>
     <use style="fill:#008000;stroke:#008000;stroke-width:0.5;" x="323.6150244506605" xlink:href="#m758cf3c8d4" y="106.53934250389277"/>
     <use style="fill:#008000;stroke:#008000;stroke-width:0.5;" x="324.80635368356684" xlink:href="#m758cf3c8d4" y="107.02890824441717"/>
     <use style="fill:#008000;stroke:#008000;stroke-width:0.5;" x="327.1890121493796" xlink:href="#m758cf3c8d4" y="108.06742356896649"/>
     <use style="fill:#008000;stroke:#008000;stroke-width:0.5;" x="327.33520971876106" xlink:href="#m758cf3c8d4" y="108.13371914257095"/>
     <use style="fill:#008000;stroke:#008000;stroke-width:0.5;" x="327.48140728814246" xlink:href="#m758cf3c8d4" y="108.2003118293051"/>
     <use style="fill:#008000;stroke:#008000;stroke-width:0.5;" x="327.7738024269054" xlink:href="#m758cf3c8d4" y="108.33438825986826"/>
     <use style="fill:#008000;stroke:#008000;stroke-width:0.5;" x="328.35859270443115" xlink:href="#m758cf3c8d4" y="108.60610335570857"/>
     <use style="fill:#008000;stroke:#008000;stroke-width:0.5;" x="329.52817325948274" xlink:href="#m758cf3c8d4" y="109.16376627305262"/>
     <use style="fill:#008000;stroke:#008000;stroke-width:0.5;" x="331.86733436958593" xlink:href="#m758cf3c8d4" y="110.33588908939586"/>
     <use style="fill:#008000;stroke:#008000;stroke-width:0.5;" x="336.5456565897922" xlink:href="#m758cf3c8d4" y="112.90618404965862"/>
     <use style="fill:#008000;stroke:#008000;stroke-width:0.5;" x="336.6820182272125" xlink:href="#m758cf3c8d4" y="112.98560140106235"/>
     <use style="fill:#008000;stroke:#008000;stroke-width:0.5;" x="336.8183798646328" xlink:href="#m758cf3c8d4" y="113.0652727635421"/>
     <use style="fill:#008000;stroke:#008000;stroke-width:0.5;" x="337.09110313947343" xlink:href="#m758cf3c8d4" y="113.22537722800263"/>
     <use style="fill:#008000;stroke:#008000;stroke-width:0.5;" x="337.6365496891547" xlink:href="#m758cf3c8d4" y="113.5486310457461"/>
     <use style="fill:#008000;stroke:#008000;stroke-width:0.5;" x="338.72744278851724" xlink:href="#m758cf3c8d4" y="114.20730148686523"/>
     <use style="fill:#008000;stroke:#008000;stroke-width:0.5;" x="340.90922898724233" xlink:href="#m758cf3c8d4" y="115.57315646088799"/>
     <use style="fill:#008000;stroke:#008000;stroke-width:0.5;" x="345.2728013846925" xlink:href="#m758cf3c8d4" y="118.49777578571593"/>
     <use style="fill:#008000;stroke:#008000;stroke-width:0.5;" x="354.73697720210225" xlink:href="#m758cf3c8d4" y="125.71290386860866"/>
     <use style="fill:#008000;stroke:#008000;stroke-width:0.5;" x="363.57165337399965" xlink:href="#m758cf3c8d4" y="133.50171208268011"/>
     <use style="fill:#008000;stroke:#008000;stroke-width:0.5;" x="372.23234012305875" xlink:href="#m758cf3c8d4" y="142.09498330155256"/>
     <use style="fill:#008000;stroke:#008000;stroke-width:0.5;" x="381.6300578946272" xlink:href="#m758cf3c8d4" y="152.4549331437757"/>
     <use style="fill:#008000;stroke:#008000;stroke-width:0.5;" x="390.3982760206834" xlink:href="#m758cf3c8d4" y="163.0538285005392"/>
     <use style="fill:#008000;stroke:#008000;stroke-width:0.5;" x="399.903525169249" xlink:href="#m758cf3c8d4" y="175.51298628835156"/>
     <use style="fill:#008000;stroke:#008000;stroke-width:0.5;" x="408.77927467230234" xlink:href="#m758cf3c8d4" y="188.00957757404208"/>
     <use style="fill:#008000;stroke:#008000;stroke-width:0.5;" x="417.4810347525172" xlink:href="#m758cf3c8d4" y="201.02182918864472"/>
     <use style="fill:#008000;stroke:#008000;stroke-width:0.5;" x="426.91982585524147" xlink:href="#m758cf3c8d4" y="215.93055496584935"/>
     <use style="fill:#008000;stroke:#008000;stroke-width:0.5;" x="435.72911731245347" xlink:href="#m758cf3c8d4" y="230.53426528333978"/>
     <use style="fill:#008000;stroke:#008000;stroke-width:0.5;" x="445.27543979217484" xlink:href="#m758cf3c8d4" y="247.04452644297749"/>
     <use style="fill:#008000;stroke:#008000;stroke-width:0.5;" x="454.64777284905784" xlink:href="#m758cf3c8d4" y="263.8765363783693"/>
     <use style="fill:#008000;stroke:#008000;stroke-width:0.5;" x="463.39060626042857" xlink:href="#m758cf3c8d4" y="280.06930701746285"/>
     <use style="fill:#008000;stroke:#008000;stroke-width:0.5;" x="472.8704706943087" xlink:href="#m758cf3c8d4" y="298.09016011790925"/>
     <use style="fill:#008000;stroke:#008000;stroke-width:0.5;" x="481.72083548267653" xlink:href="#m758cf3c8d4" y="315.28027529432063"/>
     <use style="fill:#008000;stroke:#008000;stroke-width:0.5;" x="490.397210848206" xlink:href="#m758cf3c8d4" y="332.409652726069"/>
     <use style="fill:#008000;stroke:#008000;stroke-width:0.5;" x="499.81061723624475" xlink:href="#m758cf3c8d4" y="351.2297752370335"/>
     <use style="fill:#008000;stroke:#008000;stroke-width:0.5;" x="508.5945239787713" xlink:href="#m758cf3c8d4" y="368.94168010536487"/>
     <use style="fill:#008000;stroke:#008000;stroke-width:0.5;" x="508.747734541603" xlink:href="#m758cf3c8d4" y="369.251484865192"/>
     <use style="fill:#008000;stroke:#008000;stroke-width:0.5;" x="508.90094510443464" xlink:href="#m758cf3c8d4" y="369.5613123520388"/>
     <use style="fill:#008000;stroke:#008000;stroke-width:0.5;" x="509.2073662300981" xlink:href="#m758cf3c8d4" y="370.1810340659489"/>
     <use style="fill:#008000;stroke:#008000;stroke-width:0.5;" x="509.8202084814249" xlink:href="#m758cf3c8d4" y="371.420734367305"/>
     <use style="fill:#008000;stroke:#008000;stroke-width:0.5;" x="511.0458929840785" xlink:href="#m758cf3c8d4" y="373.90108174515893"/>
     <use style="fill:#008000;stroke:#008000;stroke-width:0.5;" x="513.4972619893857" xlink:href="#m758cf3c8d4" y="378.86491755848516"/>
     <use style="fill:#008000;stroke:#008000;stroke-width:0.5;" x="513.6504725522174" xlink:href="#m758cf3c8d4" y="379.1752708077927"/>
     <use style="fill:#008000;stroke:#008000;stroke-width:0.5;" x="513.803683115049" xlink:href="#m758cf3c8d4" y="379.485635246769"/>
     <use style="fill:#008000;stroke:#008000;stroke-width:0.5;" x="514.1101042407124" xlink:href="#m758cf3c8d4" y="380.10639625040193"/>
     <use style="fill:#008000;stroke:#008000;stroke-width:0.5;" x="514.7229464920392" xlink:href="#m758cf3c8d4" y="381.348036656425"/>
     <use style="fill:#008000;stroke:#008000;stroke-width:0.5;" x="515.9486309946928" xlink:href="#m758cf3c8d4" y="383.83171022269465"/>
     <use style="fill:#008000;stroke:#008000;stroke-width:0.5;" x="516.1018415575245" xlink:href="#m758cf3c8d4" y="384.1421992010124"/>
     <use style="fill:#008000;stroke:#008000;stroke-width:0.5;" x="516.2550521203563" xlink:href="#m758cf3c8d4" y="384.4526935944693"/>
     <use style="fill:#008000;stroke:#008000;stroke-width:0.5;" x="516.5614732460197" xlink:href="#m758cf3c8d4" y="385.0736971828771"/>
     <use style="fill:#008000;stroke:#008000;stroke-width:0.5;" x="517.1743154973465" xlink:href="#m758cf3c8d4" y="386.31575345789685"/>
     <use style="fill:#008000;stroke:#008000;stroke-width:0.5;" x="517.3275260601781" xlink:href="#m758cf3c8d4" y="386.6262756496038"/>
     <use style="fill:#008000;stroke:#008000;stroke-width:0.5;" x="517.4807366230098" xlink:href="#m758cf3c8d4" y="386.93680036847337"/>
     <use style="fill:#008000;stroke:#008000;stroke-width:0.5;" x="517.7871577486732" xlink:href="#m758cf3c8d4" y="387.5578559436389"/>
     <use style="fill:#008000;stroke:#008000;stroke-width:0.5;" x="517.9403683115048" xlink:href="#m758cf3c8d4" y="387.8683860778983"/>
     <use style="fill:#008000;stroke:#008000;stroke-width:0.5;" x="518.0935788743366" xlink:href="#m758cf3c8d4" y="388.1789172952481"/>
     <use style="fill:#008000;stroke:#008000;stroke-width:0.5;" x="518.2467894371683" xlink:href="#m758cf3c8d4" y="388.48944923466604"/>
     <use style="fill:#008000;stroke:#008000;stroke-width:0.5;" x="518.4" xlink:href="#m758cf3c8d4" y="388.7999815351289"/>
    </g>
   </g>
   <g id="patch_3">
    <path d="M 72 43.2 
L 518.4 43.2 
" style="fill:none;stroke:#000000;stroke-linecap:square;stroke-linejoin:miter;"/>
   </g>
   <g id="patch_4">
    <path d="M 72 388.8 
L 518.4 388.8 
" style="fill:none;stroke:#000000;stroke-linecap:square;stroke-linejoin:miter;"/>
   </g>
   <g id="patch_5">
    <path d="M 72 388.8 
L 72 43.2 
" style="fill:none;stroke:#000000;stroke-linecap:square;stroke-linejoin:miter;"/>
   </g>
   <g id="patch_6">
    <path d="M 518.4 388.8 
L 518.4 43.2 
" style="fill:none;stroke:#000000;stroke-linecap:square;stroke-linejoin:miter;"/>
   </g>
   <g id="matplotlib.axis_1">
    <g id="xtick_1">
     <g id="text_1">
      <!-- 0.0 -->
      <defs>
       <path d="M 10.6875 12.40625 
L 21 12.40625 
L 21 0 
L 10.6875 0 
z
" id="BitstreamVeraSans-Roman-2e"/>
       <path d="M 31.78125 66.40625 
Q 24.171875 66.40625 20.328125 58.90625 
Q 16.5 51.421875 16.5 36.375 
Q 16.5 21.390625 20.328125 13.890625 
Q 24.171875 6.390625 31.78125 6.390625 
Q 39.453125 6.390625 43.28125 13.890625 
Q 47.125 21.390625 47.125 36.375 
Q 47.125 51.421875 43.28125 58.90625 
Q 39.453125 66.40625 31.78125 66.40625 
M 31.78125 74.21875 
Q 44.046875 74.21875 50.515625 64.515625 
Q 56.984375 54.828125 56.984375 36.375 
Q 56.984375 17.96875 50.515625 8.265625 
Q 44.046875 -1.421875 31.78125 -1.421875 
Q 19.53125 -1.421875 13.0625 8.265625 
Q 6.59375 17.96875 6.59375 36.375 
Q 6.59375 54.828125 13.0625 64.515625 
Q 19.53125 74.21875 31.78125 74.21875 
" id="BitstreamVeraSans-Roman-30"/>
      </defs>
      <g transform="translate(62.45811588979554 401.91812500000003)scale(0.12 -0.12)">
       <use xlink:href="#BitstreamVeraSans-Roman-30"/>
       <use x="63.623046875" xlink:href="#BitstreamVeraSans-Roman-2e"/>
       <use x="95.41015625" xlink:href="#BitstreamVeraSans-Roman-30"/>
      </g>
     </g>
    </g>
    <g id="xtick_2">
     <g id="line2d_3">
      <path clip-path="url(#p239f13a14c)" d="M 143.04676 388.8 
L 143.04676 43.2 
" style="fill:none;stroke:#000000;stroke-dasharray:1.000000,3.000000;stroke-dashoffset:0.0;stroke-width:0.5;"/>
     </g>
     <g id="line2d_4">
      <defs>
       <path d="M 0 0 
L 0 -4 
" id="mc4355ec3c3" style="stroke:#000000;stroke-width:0.5;"/>
      </defs>
      <g>
       <use style="stroke:#000000;stroke-width:0.5;" x="143.04676038588576" xlink:href="#mc4355ec3c3" y="388.8"/>
      </g>
     </g>
     <g id="line2d_5">
      <defs>
       <path d="M 0 0 
L 0 4 
" id="mf11529a8b5" style="stroke:#000000;stroke-width:0.5;"/>
      </defs>
      <g>
       <use style="stroke:#000000;stroke-width:0.5;" x="143.04676038588576" xlink:href="#mf11529a8b5" y="43.19999999999999"/>
      </g>
     </g>
     <g id="text_2">
      <!-- 0.5 -->
      <defs>
       <path d="M 10.796875 72.90625 
L 49.515625 72.90625 
L 49.515625 64.59375 
L 19.828125 64.59375 
L 19.828125 46.734375 
Q 21.96875 47.46875 24.109375 47.828125 
Q 26.265625 48.1875 28.421875 48.1875 
Q 40.625 48.1875 47.75 41.5 
Q 54.890625 34.8125 54.890625 23.390625 
Q 54.890625 11.625 47.5625 5.09375 
Q 40.234375 -1.421875 26.90625 -1.421875 
Q 22.3125 -1.421875 17.546875 -0.640625 
Q 12.796875 0.140625 7.71875 1.703125 
L 7.71875 11.625 
Q 12.109375 9.234375 16.796875 8.0625 
Q 21.484375 6.890625 26.703125 6.890625 
Q 35.15625 6.890625 40.078125 11.328125 
Q 45.015625 15.765625 45.015625 23.390625 
Q 45.015625 31 40.078125 35.4375 
Q 35.15625 39.890625 26.703125 39.890625 
Q 22.75 39.890625 18.8125 39.015625 
Q 14.890625 38.140625 10.796875 36.28125 
z
" id="BitstreamVeraSans-Roman-35"/>
      </defs>
      <g transform="translate(133.50488538588576 401.91812500000003)scale(0.12 -0.12)">
       <use xlink:href="#BitstreamVeraSans-Roman-30"/>
       <use x="63.623046875" xlink:href="#BitstreamVeraSans-Roman-2e"/>
       <use x="95.41015625" xlink:href="#BitstreamVeraSans-Roman-35"/>
      </g>
     </g>
    </g>
    <g id="xtick_3">
     <g id="line2d_6">
      <path clip-path="url(#p239f13a14c)" d="M 214.09353 388.8 
L 214.09353 43.2 
" style="fill:none;stroke:#000000;stroke-dasharray:1.000000,3.000000;stroke-dashoffset:0.0;stroke-width:0.5;"/>
     </g>
     <g id="line2d_7">
      <g>
       <use style="stroke:#000000;stroke-width:0.5;" x="214.093529881976" xlink:href="#mc4355ec3c3" y="388.8"/>
      </g>
     </g>
     <g id="line2d_8">
      <g>
       <use style="stroke:#000000;stroke-width:0.5;" x="214.093529881976" xlink:href="#mf11529a8b5" y="43.19999999999999"/>
      </g>
     </g>
     <g id="text_3">
      <!-- 1.0 -->
      <defs>
       <path d="M 12.40625 8.296875 
L 28.515625 8.296875 
L 28.515625 63.921875 
L 10.984375 60.40625 
L 10.984375 69.390625 
L 28.421875 72.90625 
L 38.28125 72.90625 
L 38.28125 8.296875 
L 54.390625 8.296875 
L 54.390625 0 
L 12.40625 0 
z
" id="BitstreamVeraSans-Roman-31"/>
      </defs>
      <g transform="translate(204.551654881976 401.91812500000003)scale(0.12 -0.12)">
       <use xlink:href="#BitstreamVeraSans-Roman-31"/>
       <use x="63.623046875" xlink:href="#BitstreamVeraSans-Roman-2e"/>
       <use x="95.41015625" xlink:href="#BitstreamVeraSans-Roman-30"/>
      </g>
     </g>
    </g>
    <g id="xtick_4">
     <g id="line2d_9">
      <path clip-path="url(#p239f13a14c)" d="M 285.140299 388.8 
L 285.140299 43.2 
" style="fill:none;stroke:#000000;stroke-dasharray:1.000000,3.000000;stroke-dashoffset:0.0;stroke-width:0.5;"/>
     </g>
     <g id="line2d_10">
      <g>
       <use style="stroke:#000000;stroke-width:0.5;" x="285.1402993780662" xlink:href="#mc4355ec3c3" y="388.8"/>
      </g>
     </g>
     <g id="line2d_11">
      <g>
       <use style="stroke:#000000;stroke-width:0.5;" x="285.1402993780662" xlink:href="#mf11529a8b5" y="43.19999999999999"/>
      </g>
     </g>
     <g id="text_4">
      <!-- 1.5 -->
      <g transform="translate(275.59842437806617 401.91812500000003)scale(0.12 -0.12)">
       <use xlink:href="#BitstreamVeraSans-Roman-31"/>
       <use x="63.623046875" xlink:href="#BitstreamVeraSans-Roman-2e"/>
       <use x="95.41015625" xlink:href="#BitstreamVeraSans-Roman-35"/>
      </g>
     </g>
    </g>
    <g id="xtick_5">
     <g id="line2d_12">
      <path clip-path="url(#p239f13a14c)" d="M 356.187069 388.8 
L 356.187069 43.2 
" style="fill:none;stroke:#000000;stroke-dasharray:1.000000,3.000000;stroke-dashoffset:0.0;stroke-width:0.5;"/>
     </g>
     <g id="line2d_13">
      <g>
       <use style="stroke:#000000;stroke-width:0.5;" x="356.1870688741564" xlink:href="#mc4355ec3c3" y="388.8"/>
      </g>
     </g>
     <g id="line2d_14">
      <g>
       <use style="stroke:#000000;stroke-width:0.5;" x="356.1870688741564" xlink:href="#mf11529a8b5" y="43.19999999999999"/>
      </g>
     </g>
     <g id="text_5">
      <!-- 2.0 -->
      <defs>
       <path d="M 19.1875 8.296875 
L 53.609375 8.296875 
L 53.609375 0 
L 7.328125 0 
L 7.328125 8.296875 
Q 12.9375 14.109375 22.625 23.890625 
Q 32.328125 33.6875 34.8125 36.53125 
Q 39.546875 41.84375 41.421875 45.53125 
Q 43.3125 49.21875 43.3125 52.78125 
Q 43.3125 58.59375 39.234375 62.25 
Q 35.15625 65.921875 28.609375 65.921875 
Q 23.96875 65.921875 18.8125 64.3125 
Q 13.671875 62.703125 7.8125 59.421875 
L 7.8125 69.390625 
Q 13.765625 71.78125 18.9375 73 
Q 24.125 74.21875 28.421875 74.21875 
Q 39.75 74.21875 46.484375 68.546875 
Q 53.21875 62.890625 53.21875 53.421875 
Q 53.21875 48.921875 51.53125 44.890625 
Q 49.859375 40.875 45.40625 35.40625 
Q 44.1875 33.984375 37.640625 27.21875 
Q 31.109375 20.453125 19.1875 8.296875 
" id="BitstreamVeraSans-Roman-32"/>
      </defs>
      <g transform="translate(346.6451938741564 401.91812500000003)scale(0.12 -0.12)">
       <use xlink:href="#BitstreamVeraSans-Roman-32"/>
       <use x="63.623046875" xlink:href="#BitstreamVeraSans-Roman-2e"/>
       <use x="95.41015625" xlink:href="#BitstreamVeraSans-Roman-30"/>
      </g>
     </g>
    </g>
    <g id="xtick_6">
     <g id="line2d_15">
      <path clip-path="url(#p239f13a14c)" d="M 427.233838 388.8 
L 427.233838 43.2 
" style="fill:none;stroke:#000000;stroke-dasharray:1.000000,3.000000;stroke-dashoffset:0.0;stroke-width:0.5;"/>
     </g>
     <g id="line2d_16">
      <g>
       <use style="stroke:#000000;stroke-width:0.5;" x="427.23383837024664" xlink:href="#mc4355ec3c3" y="388.8"/>
      </g>
     </g>
     <g id="line2d_17">
      <g>
       <use style="stroke:#000000;stroke-width:0.5;" x="427.23383837024664" xlink:href="#mf11529a8b5" y="43.19999999999999"/>
      </g>
     </g>
     <g id="text_6">
      <!-- 2.5 -->
      <g transform="translate(417.69196337024664 401.91812500000003)scale(0.12 -0.12)">
       <use xlink:href="#BitstreamVeraSans-Roman-32"/>
       <use x="63.623046875" xlink:href="#BitstreamVeraSans-Roman-2e"/>
       <use x="95.41015625" xlink:href="#BitstreamVeraSans-Roman-35"/>
      </g>
     </g>
    </g>
    <g id="xtick_7">
     <g id="line2d_18">
      <path clip-path="url(#p239f13a14c)" d="M 498.280608 388.8 
L 498.280608 43.2 
" style="fill:none;stroke:#000000;stroke-dasharray:1.000000,3.000000;stroke-dashoffset:0.0;stroke-width:0.5;"/>
     </g>
     <g id="line2d_19">
      <g>
       <use style="stroke:#000000;stroke-width:0.5;" x="498.2806078663369" xlink:href="#mc4355ec3c3" y="388.8"/>
      </g>
     </g>
     <g id="line2d_20">
      <g>
       <use style="stroke:#000000;stroke-width:0.5;" x="498.2806078663369" xlink:href="#mf11529a8b5" y="43.19999999999999"/>
      </g>
     </g>
     <g id="text_7">
      <!-- 3.0 -->
      <defs>
       <path d="M 40.578125 39.3125 
Q 47.65625 37.796875 51.625 33 
Q 55.609375 28.21875 55.609375 21.1875 
Q 55.609375 10.40625 48.1875 4.484375 
Q 40.765625 -1.421875 27.09375 -1.421875 
Q 22.515625 -1.421875 17.65625 -0.515625 
Q 12.796875 0.390625 7.625 2.203125 
L 7.625 11.71875 
Q 11.71875 9.328125 16.59375 8.109375 
Q 21.484375 6.890625 26.8125 6.890625 
Q 36.078125 6.890625 40.9375 10.546875 
Q 45.796875 14.203125 45.796875 21.1875 
Q 45.796875 27.640625 41.28125 31.265625 
Q 36.765625 34.90625 28.71875 34.90625 
L 20.21875 34.90625 
L 20.21875 43.015625 
L 29.109375 43.015625 
Q 36.375 43.015625 40.234375 45.921875 
Q 44.09375 48.828125 44.09375 54.296875 
Q 44.09375 59.90625 40.109375 62.90625 
Q 36.140625 65.921875 28.71875 65.921875 
Q 24.65625 65.921875 20.015625 65.03125 
Q 15.375 64.15625 9.8125 62.3125 
L 9.8125 71.09375 
Q 15.4375 72.65625 20.34375 73.4375 
Q 25.25 74.21875 29.59375 74.21875 
Q 40.828125 74.21875 47.359375 69.109375 
Q 53.90625 64.015625 53.90625 55.328125 
Q 53.90625 49.265625 50.4375 45.09375 
Q 46.96875 40.921875 40.578125 39.3125 
" id="BitstreamVeraSans-Roman-33"/>
      </defs>
      <g transform="translate(488.7387328663369 401.91812500000003)scale(0.12 -0.12)">
       <use xlink:href="#BitstreamVeraSans-Roman-33"/>
       <use x="63.623046875" xlink:href="#BitstreamVeraSans-Roman-2e"/>
       <use x="95.41015625" xlink:href="#BitstreamVeraSans-Roman-30"/>
      </g>
     </g>
    </g>
    <g id="text_8">
     <!-- x $\longrightarrow$ -->
     <defs>
      <path d="M 151.90625 25.796875 
L 151.90625 24.796875 
Q 140.40625 19.90625 128.09375 5.703125 
L 126.09375 7.59375 
Q 128.90625 11.59375 134.296875 17.203125 
Q 135.703125 18.59375 135.703125 20 
Q 135.703125 22 133.09375 22 
L 5.5 22 
L 5.5 28.59375 
L 133.203125 28.59375 
Q 134 28.59375 134.890625 29.34375 
Q 135.796875 30.09375 135.796875 30.796875 
Q 135.796875 31.90625 134.40625 33.296875 
Q 129.5 38 126.203125 43 
L 128.203125 44.90625 
Q 140.703125 30.5 151.90625 25.796875 
" id="STIXGeneral-Regular-27f6"/>
      <path d="M 54.890625 54.6875 
L 35.109375 28.078125 
L 55.90625 0 
L 45.3125 0 
L 29.390625 21.484375 
L 13.484375 0 
L 2.875 0 
L 24.125 28.609375 
L 4.6875 54.6875 
L 15.28125 54.6875 
L 29.78125 35.203125 
L 44.28125 54.6875 
z
" id="BitstreamVeraSans-Roman-78"/>
      <path id="BitstreamVeraSans-Roman-20"/>
     </defs>
     <g transform="translate(278.15999999999997 418.531875)scale(0.12 -0.12)">
      <use transform="translate(0.0 0.3125)" xlink:href="#BitstreamVeraSans-Roman-78"/>
      <use transform="translate(59.1796875 0.3125)" xlink:href="#BitstreamVeraSans-Roman-20"/>
      <use transform="translate(108.525390625 0.3125)" xlink:href="#STIXGeneral-Regular-27f6"/>
     </g>
    </g>
   </g>
   <g id="matplotlib.axis_2">
    <g id="ytick_1">
     <g id="line2d_21">
      <path clip-path="url(#p239f13a14c)" d="M 72 388.8 
L 518.4 388.8 
" style="fill:none;stroke:#000000;stroke-dasharray:1.000000,3.000000;stroke-dashoffset:0.0;stroke-width:0.5;"/>
     </g>
     <g id="line2d_22">
      <defs>
       <path d="M 0 0 
L 4 0 
" id="m003f6a6366" style="stroke:#000000;stroke-width:0.5;"/>
      </defs>
      <g>
       <use style="stroke:#000000;stroke-width:0.5;" x="72.0" xlink:href="#m003f6a6366" y="388.8"/>
      </g>
     </g>
     <g id="line2d_23">
      <defs>
       <path d="M 0 0 
L -4 0 
" id="mcd0faa52e9" style="stroke:#000000;stroke-width:0.5;"/>
      </defs>
      <g>
       <use style="stroke:#000000;stroke-width:0.5;" x="518.4" xlink:href="#mcd0faa52e9" y="388.8"/>
      </g>
     </g>
     <g id="text_9">
      <!-- 0.0 -->
      <g transform="translate(48.916250000000005 392.11125000000004)scale(0.12 -0.12)">
       <use xlink:href="#BitstreamVeraSans-Roman-30"/>
       <use x="63.623046875" xlink:href="#BitstreamVeraSans-Roman-2e"/>
       <use x="95.41015625" xlink:href="#BitstreamVeraSans-Roman-30"/>
      </g>
     </g>
    </g>
    <g id="ytick_2">
     <g id="line2d_24">
      <path clip-path="url(#p239f13a14c)" d="M 72 331.2 
L 518.4 331.2 
" style="fill:none;stroke:#000000;stroke-dasharray:1.000000,3.000000;stroke-dashoffset:0.0;stroke-width:0.5;"/>
     </g>
     <g id="line2d_25">
      <g>
       <use style="stroke:#000000;stroke-width:0.5;" x="72.0" xlink:href="#m003f6a6366" y="331.2"/>
      </g>
     </g>
     <g id="line2d_26">
      <g>
       <use style="stroke:#000000;stroke-width:0.5;" x="518.4" xlink:href="#mcd0faa52e9" y="331.2"/>
      </g>
     </g>
     <g id="text_10">
      <!-- 0.2 -->
      <g transform="translate(48.916250000000005 334.51125)scale(0.12 -0.12)">
       <use xlink:href="#BitstreamVeraSans-Roman-30"/>
       <use x="63.623046875" xlink:href="#BitstreamVeraSans-Roman-2e"/>
       <use x="95.41015625" xlink:href="#BitstreamVeraSans-Roman-32"/>
      </g>
     </g>
    </g>
    <g id="ytick_3">
     <g id="line2d_27">
      <path clip-path="url(#p239f13a14c)" d="M 72 273.6 
L 518.4 273.6 
" style="fill:none;stroke:#000000;stroke-dasharray:1.000000,3.000000;stroke-dashoffset:0.0;stroke-width:0.5;"/>
     </g>
     <g id="line2d_28">
      <g>
       <use style="stroke:#000000;stroke-width:0.5;" x="72.0" xlink:href="#m003f6a6366" y="273.59999999999997"/>
      </g>
     </g>
     <g id="line2d_29">
      <g>
       <use style="stroke:#000000;stroke-width:0.5;" x="518.4" xlink:href="#mcd0faa52e9" y="273.59999999999997"/>
      </g>
     </g>
     <g id="text_11">
      <!-- 0.4 -->
      <defs>
       <path d="M 37.796875 64.3125 
L 12.890625 25.390625 
L 37.796875 25.390625 
z
M 35.203125 72.90625 
L 47.609375 72.90625 
L 47.609375 25.390625 
L 58.015625 25.390625 
L 58.015625 17.1875 
L 47.609375 17.1875 
L 47.609375 0 
L 37.796875 0 
L 37.796875 17.1875 
L 4.890625 17.1875 
L 4.890625 26.703125 
z
" id="BitstreamVeraSans-Roman-34"/>
      </defs>
      <g transform="translate(48.916250000000005 276.91125)scale(0.12 -0.12)">
       <use xlink:href="#BitstreamVeraSans-Roman-30"/>
       <use x="63.623046875" xlink:href="#BitstreamVeraSans-Roman-2e"/>
       <use x="95.41015625" xlink:href="#BitstreamVeraSans-Roman-34"/>
      </g>
     </g>
    </g>
    <g id="ytick_4">
     <g id="line2d_30">
      <path clip-path="url(#p239f13a14c)" d="M 72 216 
L 518.4 216 
" style="fill:none;stroke:#000000;stroke-dasharray:1.000000,3.000000;stroke-dashoffset:0.0;stroke-width:0.5;"/>
     </g>
     <g id="line2d_31">
      <g>
       <use style="stroke:#000000;stroke-width:0.5;" x="72.0" xlink:href="#m003f6a6366" y="215.99999999999994"/>
      </g>
     </g>
     <g id="line2d_32">
      <g>
       <use style="stroke:#000000;stroke-width:0.5;" x="518.4" xlink:href="#mcd0faa52e9" y="215.99999999999994"/>
      </g>
     </g>
     <g id="text_12">
      <!-- 0.6 -->
      <defs>
       <path d="M 33.015625 40.375 
Q 26.375 40.375 22.484375 35.828125 
Q 18.609375 31.296875 18.609375 23.390625 
Q 18.609375 15.53125 22.484375 10.953125 
Q 26.375 6.390625 33.015625 6.390625 
Q 39.65625 6.390625 43.53125 10.953125 
Q 47.40625 15.53125 47.40625 23.390625 
Q 47.40625 31.296875 43.53125 35.828125 
Q 39.65625 40.375 33.015625 40.375 
M 52.59375 71.296875 
L 52.59375 62.3125 
Q 48.875 64.0625 45.09375 64.984375 
Q 41.3125 65.921875 37.59375 65.921875 
Q 27.828125 65.921875 22.671875 59.328125 
Q 17.53125 52.734375 16.796875 39.40625 
Q 19.671875 43.65625 24.015625 45.921875 
Q 28.375 48.1875 33.59375 48.1875 
Q 44.578125 48.1875 50.953125 41.515625 
Q 57.328125 34.859375 57.328125 23.390625 
Q 57.328125 12.15625 50.6875 5.359375 
Q 44.046875 -1.421875 33.015625 -1.421875 
Q 20.359375 -1.421875 13.671875 8.265625 
Q 6.984375 17.96875 6.984375 36.375 
Q 6.984375 53.65625 15.1875 63.9375 
Q 23.390625 74.21875 37.203125 74.21875 
Q 40.921875 74.21875 44.703125 73.484375 
Q 48.484375 72.75 52.59375 71.296875 
" id="BitstreamVeraSans-Roman-36"/>
      </defs>
      <g transform="translate(48.916250000000005 219.31124999999994)scale(0.12 -0.12)">
       <use xlink:href="#BitstreamVeraSans-Roman-30"/>
       <use x="63.623046875" xlink:href="#BitstreamVeraSans-Roman-2e"/>
       <use x="95.41015625" xlink:href="#BitstreamVeraSans-Roman-36"/>
      </g>
     </g>
    </g>
    <g id="ytick_5">
     <g id="line2d_33">
      <path clip-path="url(#p239f13a14c)" d="M 72 158.4 
L 518.4 158.4 
" style="fill:none;stroke:#000000;stroke-dasharray:1.000000,3.000000;stroke-dashoffset:0.0;stroke-width:0.5;"/>
     </g>
     <g id="line2d_34">
      <g>
       <use style="stroke:#000000;stroke-width:0.5;" x="72.0" xlink:href="#m003f6a6366" y="158.39999999999995"/>
      </g>
     </g>
     <g id="line2d_35">
      <g>
       <use style="stroke:#000000;stroke-width:0.5;" x="518.4" xlink:href="#mcd0faa52e9" y="158.39999999999995"/>
      </g>
     </g>
     <g id="text_13">
      <!-- 0.8 -->
      <defs>
       <path d="M 31.78125 34.625 
Q 24.75 34.625 20.71875 30.859375 
Q 16.703125 27.09375 16.703125 20.515625 
Q 16.703125 13.921875 20.71875 10.15625 
Q 24.75 6.390625 31.78125 6.390625 
Q 38.8125 6.390625 42.859375 10.171875 
Q 46.921875 13.96875 46.921875 20.515625 
Q 46.921875 27.09375 42.890625 30.859375 
Q 38.875 34.625 31.78125 34.625 
M 21.921875 38.8125 
Q 15.578125 40.375 12.03125 44.71875 
Q 8.5 49.078125 8.5 55.328125 
Q 8.5 64.0625 14.71875 69.140625 
Q 20.953125 74.21875 31.78125 74.21875 
Q 42.671875 74.21875 48.875 69.140625 
Q 55.078125 64.0625 55.078125 55.328125 
Q 55.078125 49.078125 51.53125 44.71875 
Q 48 40.375 41.703125 38.8125 
Q 48.828125 37.15625 52.796875 32.3125 
Q 56.78125 27.484375 56.78125 20.515625 
Q 56.78125 9.90625 50.3125 4.234375 
Q 43.84375 -1.421875 31.78125 -1.421875 
Q 19.734375 -1.421875 13.25 4.234375 
Q 6.78125 9.90625 6.78125 20.515625 
Q 6.78125 27.484375 10.78125 32.3125 
Q 14.796875 37.15625 21.921875 38.8125 
M 18.3125 54.390625 
Q 18.3125 48.734375 21.84375 45.5625 
Q 25.390625 42.390625 31.78125 42.390625 
Q 38.140625 42.390625 41.71875 45.5625 
Q 45.3125 48.734375 45.3125 54.390625 
Q 45.3125 60.0625 41.71875 63.234375 
Q 38.140625 66.40625 31.78125 66.40625 
Q 25.390625 66.40625 21.84375 63.234375 
Q 18.3125 60.0625 18.3125 54.390625 
" id="BitstreamVeraSans-Roman-38"/>
      </defs>
      <g transform="translate(48.916250000000005 161.71124999999995)scale(0.12 -0.12)">
       <use xlink:href="#BitstreamVeraSans-Roman-30"/>
       <use x="63.623046875" xlink:href="#BitstreamVeraSans-Roman-2e"/>
       <use x="95.41015625" xlink:href="#BitstreamVeraSans-Roman-38"/>
      </g>
     </g>
    </g>
    <g id="ytick_6">
     <g id="line2d_36">
      <path clip-path="url(#p239f13a14c)" d="M 72 100.8 
L 518.4 100.8 
" style="fill:none;stroke:#000000;stroke-dasharray:1.000000,3.000000;stroke-dashoffset:0.0;stroke-width:0.5;"/>
     </g>
     <g id="line2d_37">
      <g>
       <use style="stroke:#000000;stroke-width:0.5;" x="72.0" xlink:href="#m003f6a6366" y="100.79999999999995"/>
      </g>
     </g>
     <g id="line2d_38">
      <g>
       <use style="stroke:#000000;stroke-width:0.5;" x="518.4" xlink:href="#mcd0faa52e9" y="100.79999999999995"/>
      </g>
     </g>
     <g id="text_14">
      <!-- 1.0 -->
      <g transform="translate(48.916250000000005 104.11124999999993)scale(0.12 -0.12)">
       <use xlink:href="#BitstreamVeraSans-Roman-31"/>
       <use x="63.623046875" xlink:href="#BitstreamVeraSans-Roman-2e"/>
       <use x="95.41015625" xlink:href="#BitstreamVeraSans-Roman-30"/>
      </g>
     </g>
    </g>
    <g id="ytick_7">
     <g id="text_15">
      <!-- 1.2 -->
      <g transform="translate(48.916250000000005 46.51124999999985)scale(0.12 -0.12)">
       <use xlink:href="#BitstreamVeraSans-Roman-31"/>
       <use x="63.623046875" xlink:href="#BitstreamVeraSans-Roman-2e"/>
       <use x="95.41015625" xlink:href="#BitstreamVeraSans-Roman-32"/>
      </g>
     </g>
    </g>
    <g id="text_16">
     <!-- y $\longrightarrow$ -->
     <defs>
      <path d="M 32.171875 -5.078125 
Q 28.375 -14.84375 24.75 -17.8125 
Q 21.140625 -20.796875 15.09375 -20.796875 
L 7.90625 -20.796875 
L 7.90625 -13.28125 
L 13.1875 -13.28125 
Q 16.890625 -13.28125 18.9375 -11.515625 
Q 21 -9.765625 23.484375 -3.21875 
L 25.09375 0.875 
L 2.984375 54.6875 
L 12.5 54.6875 
L 29.59375 11.921875 
L 46.6875 54.6875 
L 56.203125 54.6875 
z
" id="BitstreamVeraSans-Roman-79"/>
     </defs>
     <g transform="translate(41.39625 233.04)rotate(-90.0)scale(0.12 -0.12)">
      <use transform="translate(0.0 0.3125)" xlink:href="#BitstreamVeraSans-Roman-79"/>
      <use transform="translate(59.1796875 0.3125)" xlink:href="#BitstreamVeraSans-Roman-20"/>
      <use transform="translate(108.525390625 0.3125)" xlink:href="#STIXGeneral-Regular-27f6"/>
     </g>
    </g>
   </g>
   <g id="text_17">
    <!-- Cubic spline interpolation of data in file_1.txt -->
    <defs>
     <path d="M 45.40625 46.390625 
L 45.40625 75.984375 
L 54.390625 75.984375 
L 54.390625 0 
L 45.40625 0 
L 45.40625 8.203125 
Q 42.578125 3.328125 38.25 0.953125 
Q 33.9375 -1.421875 27.875 -1.421875 
Q 17.96875 -1.421875 11.734375 6.484375 
Q 5.515625 14.40625 5.515625 27.296875 
Q 5.515625 40.1875 11.734375 48.09375 
Q 17.96875 56 27.875 56 
Q 33.9375 56 38.25 53.625 
Q 42.578125 51.265625 45.40625 46.390625 
M 14.796875 27.296875 
Q 14.796875 17.390625 18.875 11.75 
Q 22.953125 6.109375 30.078125 6.109375 
Q 37.203125 6.109375 41.296875 11.75 
Q 45.40625 17.390625 45.40625 27.296875 
Q 45.40625 37.203125 41.296875 42.84375 
Q 37.203125 48.484375 30.078125 48.484375 
Q 22.953125 48.484375 18.875 42.84375 
Q 14.796875 37.203125 14.796875 27.296875 
" id="BitstreamVeraSans-Roman-64"/>
     <path d="M 56.203125 29.59375 
L 56.203125 25.203125 
L 14.890625 25.203125 
Q 15.484375 15.921875 20.484375 11.0625 
Q 25.484375 6.203125 34.421875 6.203125 
Q 39.59375 6.203125 44.453125 7.46875 
Q 49.3125 8.734375 54.109375 11.28125 
L 54.109375 2.78125 
Q 49.265625 0.734375 44.1875 -0.34375 
Q 39.109375 -1.421875 33.890625 -1.421875 
Q 20.796875 -1.421875 13.15625 6.1875 
Q 5.515625 13.8125 5.515625 26.8125 
Q 5.515625 40.234375 12.765625 48.109375 
Q 20.015625 56 32.328125 56 
Q 43.359375 56 49.78125 48.890625 
Q 56.203125 41.796875 56.203125 29.59375 
M 47.21875 32.234375 
Q 47.125 39.59375 43.09375 43.984375 
Q 39.0625 48.390625 32.421875 48.390625 
Q 24.90625 48.390625 20.390625 44.140625 
Q 15.875 39.890625 15.1875 32.171875 
z
" id="BitstreamVeraSans-Roman-65"/>
     <path d="M 30.609375 48.390625 
Q 23.390625 48.390625 19.1875 42.75 
Q 14.984375 37.109375 14.984375 27.296875 
Q 14.984375 17.484375 19.15625 11.84375 
Q 23.34375 6.203125 30.609375 6.203125 
Q 37.796875 6.203125 41.984375 11.859375 
Q 46.1875 17.53125 46.1875 27.296875 
Q 46.1875 37.015625 41.984375 42.703125 
Q 37.796875 48.390625 30.609375 48.390625 
M 30.609375 56 
Q 42.328125 56 49.015625 48.375 
Q 55.71875 40.765625 55.71875 27.296875 
Q 55.71875 13.875 49.015625 6.21875 
Q 42.328125 -1.421875 30.609375 -1.421875 
Q 18.84375 -1.421875 12.171875 6.21875 
Q 5.515625 13.875 5.515625 27.296875 
Q 5.515625 40.765625 12.171875 48.375 
Q 18.84375 56 30.609375 56 
" id="BitstreamVeraSans-Roman-6f"/>
     <path d="M 50.984375 -16.609375 
L 50.984375 -23.578125 
L -0.984375 -23.578125 
L -0.984375 -16.609375 
z
" id="BitstreamVeraSans-Roman-5f"/>
     <path d="M 9.421875 75.984375 
L 18.40625 75.984375 
L 18.40625 0 
L 9.421875 0 
z
" id="BitstreamVeraSans-Roman-6c"/>
     <path d="M 18.3125 70.21875 
L 18.3125 54.6875 
L 36.8125 54.6875 
L 36.8125 47.703125 
L 18.3125 47.703125 
L 18.3125 18.015625 
Q 18.3125 11.328125 20.140625 9.421875 
Q 21.96875 7.515625 27.59375 7.515625 
L 36.8125 7.515625 
L 36.8125 0 
L 27.59375 0 
Q 17.1875 0 13.234375 3.875 
Q 9.28125 7.765625 9.28125 18.015625 
L 9.28125 47.703125 
L 2.6875 47.703125 
L 2.6875 54.6875 
L 9.28125 54.6875 
L 9.28125 70.21875 
z
" id="BitstreamVeraSans-Roman-74"/>
     <path d="M 64.40625 67.28125 
L 64.40625 56.890625 
Q 59.421875 61.53125 53.78125 63.8125 
Q 48.140625 66.109375 41.796875 66.109375 
Q 29.296875 66.109375 22.65625 58.46875 
Q 16.015625 50.828125 16.015625 36.375 
Q 16.015625 21.96875 22.65625 14.328125 
Q 29.296875 6.6875 41.796875 6.6875 
Q 48.140625 6.6875 53.78125 8.984375 
Q 59.421875 11.28125 64.40625 15.921875 
L 64.40625 5.609375 
Q 59.234375 2.09375 53.4375 0.328125 
Q 47.65625 -1.421875 41.21875 -1.421875 
Q 24.65625 -1.421875 15.125 8.703125 
Q 5.609375 18.84375 5.609375 36.375 
Q 5.609375 53.953125 15.125 64.078125 
Q 24.65625 74.21875 41.21875 74.21875 
Q 47.75 74.21875 53.53125 72.484375 
Q 59.328125 70.75 64.40625 67.28125 
" id="BitstreamVeraSans-Roman-43"/>
     <path d="M 48.6875 27.296875 
Q 48.6875 37.203125 44.609375 42.84375 
Q 40.53125 48.484375 33.40625 48.484375 
Q 26.265625 48.484375 22.1875 42.84375 
Q 18.109375 37.203125 18.109375 27.296875 
Q 18.109375 17.390625 22.1875 11.75 
Q 26.265625 6.109375 33.40625 6.109375 
Q 40.53125 6.109375 44.609375 11.75 
Q 48.6875 17.390625 48.6875 27.296875 
M 18.109375 46.390625 
Q 20.953125 51.265625 25.265625 53.625 
Q 29.59375 56 35.59375 56 
Q 45.5625 56 51.78125 48.09375 
Q 58.015625 40.1875 58.015625 27.296875 
Q 58.015625 14.40625 51.78125 6.484375 
Q 45.5625 -1.421875 35.59375 -1.421875 
Q 29.59375 -1.421875 25.265625 0.953125 
Q 20.953125 3.328125 18.109375 8.203125 
L 18.109375 0 
L 9.078125 0 
L 9.078125 75.984375 
L 18.109375 75.984375 
z
" id="BitstreamVeraSans-Roman-62"/>
     <path d="M 44.28125 53.078125 
L 44.28125 44.578125 
Q 40.484375 46.53125 36.375 47.5 
Q 32.28125 48.484375 27.875 48.484375 
Q 21.1875 48.484375 17.84375 46.4375 
Q 14.5 44.390625 14.5 40.28125 
Q 14.5 37.15625 16.890625 35.375 
Q 19.28125 33.59375 26.515625 31.984375 
L 29.59375 31.296875 
Q 39.15625 29.25 43.1875 25.515625 
Q 47.21875 21.78125 47.21875 15.09375 
Q 47.21875 7.46875 41.1875 3.015625 
Q 35.15625 -1.421875 24.609375 -1.421875 
Q 20.21875 -1.421875 15.453125 -0.5625 
Q 10.6875 0.296875 5.421875 2 
L 5.421875 11.28125 
Q 10.40625 8.6875 15.234375 7.390625 
Q 20.0625 6.109375 24.8125 6.109375 
Q 31.15625 6.109375 34.5625 8.28125 
Q 37.984375 10.453125 37.984375 14.40625 
Q 37.984375 18.0625 35.515625 20.015625 
Q 33.0625 21.96875 24.703125 23.78125 
L 21.578125 24.515625 
Q 13.234375 26.265625 9.515625 29.90625 
Q 5.8125 33.546875 5.8125 39.890625 
Q 5.8125 47.609375 11.28125 51.796875 
Q 16.75 56 26.8125 56 
Q 31.78125 56 36.171875 55.265625 
Q 40.578125 54.546875 44.28125 53.078125 
" id="BitstreamVeraSans-Roman-73"/>
     <path d="M 37.109375 75.984375 
L 37.109375 68.5 
L 28.515625 68.5 
Q 23.6875 68.5 21.796875 66.546875 
Q 19.921875 64.59375 19.921875 59.515625 
L 19.921875 54.6875 
L 34.71875 54.6875 
L 34.71875 47.703125 
L 19.921875 47.703125 
L 19.921875 0 
L 10.890625 0 
L 10.890625 47.703125 
L 2.296875 47.703125 
L 2.296875 54.6875 
L 10.890625 54.6875 
L 10.890625 58.5 
Q 10.890625 67.625 15.140625 71.796875 
Q 19.390625 75.984375 28.609375 75.984375 
z
" id="BitstreamVeraSans-Roman-66"/>
     <path d="M 9.421875 54.6875 
L 18.40625 54.6875 
L 18.40625 0 
L 9.421875 0 
z
M 9.421875 75.984375 
L 18.40625 75.984375 
L 18.40625 64.59375 
L 9.421875 64.59375 
z
" id="BitstreamVeraSans-Roman-69"/>
     <path d="M 54.890625 33.015625 
L 54.890625 0 
L 45.90625 0 
L 45.90625 32.71875 
Q 45.90625 40.484375 42.875 44.328125 
Q 39.84375 48.1875 33.796875 48.1875 
Q 26.515625 48.1875 22.3125 43.546875 
Q 18.109375 38.921875 18.109375 30.90625 
L 18.109375 0 
L 9.078125 0 
L 9.078125 54.6875 
L 18.109375 54.6875 
L 18.109375 46.1875 
Q 21.34375 51.125 25.703125 53.5625 
Q 30.078125 56 35.796875 56 
Q 45.21875 56 50.046875 50.171875 
Q 54.890625 44.34375 54.890625 33.015625 
" id="BitstreamVeraSans-Roman-6e"/>
     <path d="M 8.5 21.578125 
L 8.5 54.6875 
L 17.484375 54.6875 
L 17.484375 21.921875 
Q 17.484375 14.15625 20.5 10.265625 
Q 23.53125 6.390625 29.59375 6.390625 
Q 36.859375 6.390625 41.078125 11.03125 
Q 45.3125 15.671875 45.3125 23.6875 
L 45.3125 54.6875 
L 54.296875 54.6875 
L 54.296875 0 
L 45.3125 0 
L 45.3125 8.40625 
Q 42.046875 3.421875 37.71875 1 
Q 33.40625 -1.421875 27.6875 -1.421875 
Q 18.265625 -1.421875 13.375 4.4375 
Q 8.5 10.296875 8.5 21.578125 
" id="BitstreamVeraSans-Roman-75"/>
     <path d="M 18.109375 8.203125 
L 18.109375 -20.796875 
L 9.078125 -20.796875 
L 9.078125 54.6875 
L 18.109375 54.6875 
L 18.109375 46.390625 
Q 20.953125 51.265625 25.265625 53.625 
Q 29.59375 56 35.59375 56 
Q 45.5625 56 51.78125 48.09375 
Q 58.015625 40.1875 58.015625 27.296875 
Q 58.015625 14.40625 51.78125 6.484375 
Q 45.5625 -1.421875 35.59375 -1.421875 
Q 29.59375 -1.421875 25.265625 0.953125 
Q 20.953125 3.328125 18.109375 8.203125 
M 48.6875 27.296875 
Q 48.6875 37.203125 44.609375 42.84375 
Q 40.53125 48.484375 33.40625 48.484375 
Q 26.265625 48.484375 22.1875 42.84375 
Q 18.109375 37.203125 18.109375 27.296875 
Q 18.109375 17.390625 22.1875 11.75 
Q 26.265625 6.109375 33.40625 6.109375 
Q 40.53125 6.109375 44.609375 11.75 
Q 48.6875 17.390625 48.6875 27.296875 
" id="BitstreamVeraSans-Roman-70"/>
     <path d="M 41.109375 46.296875 
Q 39.59375 47.171875 37.8125 47.578125 
Q 36.03125 48 33.890625 48 
Q 26.265625 48 22.1875 43.046875 
Q 18.109375 38.09375 18.109375 28.8125 
L 18.109375 0 
L 9.078125 0 
L 9.078125 54.6875 
L 18.109375 54.6875 
L 18.109375 46.1875 
Q 20.953125 51.171875 25.484375 53.578125 
Q 30.03125 56 36.53125 56 
Q 37.453125 56 38.578125 55.875 
Q 39.703125 55.765625 41.0625 55.515625 
z
" id="BitstreamVeraSans-Roman-72"/>
     <path d="M 48.78125 52.59375 
L 48.78125 44.1875 
Q 44.96875 46.296875 41.140625 47.34375 
Q 37.3125 48.390625 33.40625 48.390625 
Q 24.65625 48.390625 19.8125 42.84375 
Q 14.984375 37.3125 14.984375 27.296875 
Q 14.984375 17.28125 19.8125 11.734375 
Q 24.65625 6.203125 33.40625 6.203125 
Q 37.3125 6.203125 41.140625 7.25 
Q 44.96875 8.296875 48.78125 10.40625 
L 48.78125 2.09375 
Q 45.015625 0.34375 40.984375 -0.53125 
Q 36.96875 -1.421875 32.421875 -1.421875 
Q 20.0625 -1.421875 12.78125 6.34375 
Q 5.515625 14.109375 5.515625 27.296875 
Q 5.515625 40.671875 12.859375 48.328125 
Q 20.21875 56 33.015625 56 
Q 37.15625 56 41.109375 55.140625 
Q 45.0625 54.296875 48.78125 52.59375 
" id="BitstreamVeraSans-Roman-63"/>
     <path d="M 34.28125 27.484375 
Q 23.390625 27.484375 19.1875 25 
Q 14.984375 22.515625 14.984375 16.5 
Q 14.984375 11.71875 18.140625 8.90625 
Q 21.296875 6.109375 26.703125 6.109375 
Q 34.1875 6.109375 38.703125 11.40625 
Q 43.21875 16.703125 43.21875 25.484375 
L 43.21875 27.484375 
z
M 52.203125 31.203125 
L 52.203125 0 
L 43.21875 0 
L 43.21875 8.296875 
Q 40.140625 3.328125 35.546875 0.953125 
Q 30.953125 -1.421875 24.3125 -1.421875 
Q 15.921875 -1.421875 10.953125 3.296875 
Q 6 8.015625 6 15.921875 
Q 6 25.140625 12.171875 29.828125 
Q 18.359375 34.515625 30.609375 34.515625 
L 43.21875 34.515625 
L 43.21875 35.40625 
Q 43.21875 41.609375 39.140625 45 
Q 35.0625 48.390625 27.6875 48.390625 
Q 23 48.390625 18.546875 47.265625 
Q 14.109375 46.140625 10.015625 43.890625 
L 10.015625 52.203125 
Q 14.9375 54.109375 19.578125 55.046875 
Q 24.21875 56 28.609375 56 
Q 40.484375 56 46.34375 49.84375 
Q 52.203125 43.703125 52.203125 31.203125 
" id="BitstreamVeraSans-Roman-61"/>
    </defs>
    <g transform="translate(133.0155 38.19999999999999)scale(0.144 -0.144)">
     <use xlink:href="#BitstreamVeraSans-Roman-43"/>
     <use x="69.82421875" xlink:href="#BitstreamVeraSans-Roman-75"/>
     <use x="133.203125" xlink:href="#BitstreamVeraSans-Roman-62"/>
     <use x="196.6796875" xlink:href="#BitstreamVeraSans-Roman-69"/>
     <use x="224.462890625" xlink:href="#BitstreamVeraSans-Roman-63"/>
     <use x="279.443359375" xlink:href="#BitstreamVeraSans-Roman-20"/>
     <use x="311.23046875" xlink:href="#BitstreamVeraSans-Roman-73"/>
     <use x="363.330078125" xlink:href="#BitstreamVeraSans-Roman-70"/>
     <use x="426.806640625" xlink:href="#BitstreamVeraSans-Roman-6c"/>
     <use x="454.58984375" xlink:href="#BitstreamVeraSans-Roman-69"/>
     <use x="482.373046875" xlink:href="#BitstreamVeraSans-Roman-6e"/>
     <use x="545.751953125" xlink:href="#BitstreamVeraSans-Roman-65"/>
     <use x="607.275390625" xlink:href="#BitstreamVeraSans-Roman-20"/>
     <use x="639.0625" xlink:href="#BitstreamVeraSans-Roman-69"/>
     <use x="666.845703125" xlink:href="#BitstreamVeraSans-Roman-6e"/>
     <use x="730.224609375" xlink:href="#BitstreamVeraSans-Roman-74"/>
     <use x="769.43359375" xlink:href="#BitstreamVeraSans-Roman-65"/>
     <use x="830.95703125" xlink:href="#BitstreamVeraSans-Roman-72"/>
     <use x="872.0703125" xlink:href="#BitstreamVeraSans-Roman-70"/>
     <use x="935.546875" xlink:href="#BitstreamVeraSans-Roman-6f"/>
     <use x="996.728515625" xlink:href="#BitstreamVeraSans-Roman-6c"/>
     <use x="1024.51171875" xlink:href="#BitstreamVeraSans-Roman-61"/>
     <use x="1085.791015625" xlink:href="#BitstreamVeraSans-Roman-74"/>
     <use x="1125.0" xlink:href="#BitstreamVeraSans-Roman-69"/>
     <use x="1152.783203125" xlink:href="#BitstreamVeraSans-Roman-6f"/>
     <use x="1213.96484375" xlink:href="#BitstreamVeraSans-Roman-6e"/>
     <use x="1277.34375" xlink:href="#BitstreamVeraSans-Roman-20"/>
     <use x="1309.130859375" xlink:href="#BitstreamVeraSans-Roman-6f"/>
     <use x="1370.3125" xlink:href="#BitstreamVeraSans-Roman-66"/>
     <use x="1405.517578125" xlink:href="#BitstreamVeraSans-Roman-20"/>
     <use x="1437.3046875" xlink:href="#BitstreamVeraSans-Roman-64"/>
     <use x="1500.78125" xlink:href="#BitstreamVeraSans-Roman-61"/>
     <use x="1562.060546875" xlink:href="#BitstreamVeraSans-Roman-74"/>
     <use x="1601.26953125" xlink:href="#BitstreamVeraSans-Roman-61"/>
     <use x="1662.548828125" xlink:href="#BitstreamVeraSans-Roman-20"/>
     <use x="1694.3359375" xlink:href="#BitstreamVeraSans-Roman-69"/>
     <use x="1722.119140625" xlink:href="#BitstreamVeraSans-Roman-6e"/>
     <use x="1785.498046875" xlink:href="#BitstreamVeraSans-Roman-20"/>
     <use x="1817.28515625" xlink:href="#BitstreamVeraSans-Roman-66"/>
     <use x="1852.490234375" xlink:href="#BitstreamVeraSans-Roman-69"/>
     <use x="1880.2734375" xlink:href="#BitstreamVeraSans-Roman-6c"/>
     <use x="1908.056640625" xlink:href="#BitstreamVeraSans-Roman-65"/>
     <use x="1969.580078125" xlink:href="#BitstreamVeraSans-Roman-5f"/>
     <use x="2019.580078125" xlink:href="#BitstreamVeraSans-Roman-31"/>
     <use x="2083.203125" xlink:href="#BitstreamVeraSans-Roman-2e"/>
     <use x="2114.990234375" xlink:href="#BitstreamVeraSans-Roman-74"/>
     <use x="2154.19921875" xlink:href="#BitstreamVeraSans-Roman-78"/>
     <use x="2213.37890625" xlink:href="#BitstreamVeraSans-Roman-74"/>
    </g>
   </g>
   <g id="legend_1">
    <g id="patch_7">
     <path d="M 334.12275 96.993 
L 511.2 96.993 
L 511.2 50.4 
L 334.12275 50.4 
z
" style="fill:#ffffff;stroke:#000000;stroke-linejoin:miter;"/>
    </g>
    <g id="line2d_39">
     <path d="M 344.20275 62.06175 
L 364.36275 62.06175 
" style="fill:none;stroke:#0000ff;stroke-linecap:square;"/>
    </g>
    <g id="line2d_40"/>
    <g id="text_18">
     <!-- Interpolated data -->
     <defs>
      <path d="M 9.8125 72.90625 
L 19.671875 72.90625 
L 19.671875 0 
L 9.8125 0 
z
" id="BitstreamVeraSans-Roman-49"/>
     </defs>
     <g transform="translate(380.20275000000004 67.10174999999992)scale(0.144 -0.144)">
      <use xlink:href="#BitstreamVeraSans-Roman-49"/>
      <use x="29.4921875" xlink:href="#BitstreamVeraSans-Roman-6e"/>
      <use x="92.87109375" xlink:href="#BitstreamVeraSans-Roman-74"/>
      <use x="132.080078125" xlink:href="#BitstreamVeraSans-Roman-65"/>
      <use x="193.603515625" xlink:href="#BitstreamVeraSans-Roman-72"/>
      <use x="234.716796875" xlink:href="#BitstreamVeraSans-Roman-70"/>
      <use x="298.193359375" xlink:href="#BitstreamVeraSans-Roman-6f"/>
      <use x="359.375" xlink:href="#BitstreamVeraSans-Roman-6c"/>
      <use x="387.158203125" xlink:href="#BitstreamVeraSans-Roman-61"/>
      <use x="448.4375" xlink:href="#BitstreamVeraSans-Roman-74"/>
      <use x="487.646484375" xlink:href="#BitstreamVeraSans-Roman-65"/>
      <use x="549.169921875" xlink:href="#BitstreamVeraSans-Roman-64"/>
      <use x="612.646484375" xlink:href="#BitstreamVeraSans-Roman-20"/>
      <use x="644.43359375" xlink:href="#BitstreamVeraSans-Roman-64"/>
      <use x="707.91015625" xlink:href="#BitstreamVeraSans-Roman-61"/>
      <use x="769.189453125" xlink:href="#BitstreamVeraSans-Roman-74"/>
      <use x="808.3984375" xlink:href="#BitstreamVeraSans-Roman-61"/>
     </g>
    </g>
    <g id="line2d_41"/>
    <g id="line2d_42">
     <g>
      <use style="fill:#008000;stroke:#008000;stroke-width:0.5;" x="344.20275000000004" xlink:href="#m758cf3c8d4" y="83.19824999999994"/>
      <use style="fill:#008000;stroke:#008000;stroke-width:0.5;" x="364.36275000000006" xlink:href="#m758cf3c8d4" y="83.19824999999994"/>
     </g>
    </g>
    <g id="text_19">
     <!-- Given data -->
     <defs>
      <path d="M 59.515625 10.40625 
L 59.515625 29.984375 
L 43.40625 29.984375 
L 43.40625 38.09375 
L 69.28125 38.09375 
L 69.28125 6.78125 
Q 63.578125 2.734375 56.6875 0.65625 
Q 49.8125 -1.421875 42 -1.421875 
Q 24.90625 -1.421875 15.25 8.5625 
Q 5.609375 18.5625 5.609375 36.375 
Q 5.609375 54.25 15.25 64.234375 
Q 24.90625 74.21875 42 74.21875 
Q 49.125 74.21875 55.546875 72.453125 
Q 61.96875 70.703125 67.390625 67.28125 
L 67.390625 56.78125 
Q 61.921875 61.421875 55.765625 63.765625 
Q 49.609375 66.109375 42.828125 66.109375 
Q 29.4375 66.109375 22.71875 58.640625 
Q 16.015625 51.171875 16.015625 36.375 
Q 16.015625 21.625 22.71875 14.15625 
Q 29.4375 6.6875 42.828125 6.6875 
Q 48.046875 6.6875 52.140625 7.59375 
Q 56.25 8.5 59.515625 10.40625 
" id="BitstreamVeraSans-Roman-47"/>
      <path d="M 2.984375 54.6875 
L 12.5 54.6875 
L 29.59375 8.796875 
L 46.6875 54.6875 
L 56.203125 54.6875 
L 35.6875 0 
L 23.484375 0 
z
" id="BitstreamVeraSans-Roman-76"/>
     </defs>
     <g transform="translate(380.20275000000004 88.23824999999994)scale(0.144 -0.144)">
      <use xlink:href="#BitstreamVeraSans-Roman-47"/>
      <use x="77.490234375" xlink:href="#BitstreamVeraSans-Roman-69"/>
      <use x="105.2734375" xlink:href="#BitstreamVeraSans-Roman-76"/>
      <use x="164.453125" xlink:href="#BitstreamVeraSans-Roman-65"/>
      <use x="225.9765625" xlink:href="#BitstreamVeraSans-Roman-6e"/>
      <use x="289.35546875" xlink:href="#BitstreamVeraSans-Roman-20"/>
      <use x="321.142578125" xlink:href="#BitstreamVeraSans-Roman-64"/>
      <use x="384.619140625" xlink:href="#BitstreamVeraSans-Roman-61"/>
      <use x="445.8984375" xlink:href="#BitstreamVeraSans-Roman-74"/>
      <use x="485.107421875" xlink:href="#BitstreamVeraSans-Roman-61"/>
     </g>
    </g>
   </g>
  </g>
 </g>
 <defs>
  <clipPath id="p239f13a14c">
   <rect height="345.6" width="446.4" x="72.0" y="43.19999999999999"/>
  </clipPath>
 </defs>
</svg>
